<svg xmlns="http://www.w3.org/2000/svg" width="1000" height="984" viewBox="0 0 1000 984" version="1.1"><path d="M 648.041 29.537 C 651.044 32.857, 653.704 35.428, 653.953 35.251 C 654.202 35.073, 651.746 32.356, 648.494 29.214 L 642.583 23.500 648.041 29.537 M 415.394 135.254 C 410.648 140.730, 409.916 142.147, 413.882 138.184 C 416.258 135.810, 418.008 133.674, 417.771 133.438 C 417.535 133.201, 416.465 134.019, 415.394 135.254 M 469.833 211.786 C 469.650 212.218, 468.012 213.618, 466.192 214.895 C 464.373 216.173, 463.093 217.426, 463.347 217.681 C 463.602 217.935, 464.640 217.460, 465.655 216.625 C 466.670 215.790, 468.625 214.198, 470 213.087 C 471.375 211.976, 471.975 211.052, 471.333 211.033 C 470.692 211.015, 470.017 211.354, 469.833 211.786 M 834.199 228.055 C 831.284 231.875, 829.096 235, 829.337 235 C 829.578 235, 832.320 231.850, 835.430 228 C 838.541 224.150, 840.729 221.025, 840.293 221.055 C 839.857 221.085, 837.115 224.235, 834.199 228.055 M 334.572 232.011 C 328.421 240.099, 328.739 240.833, 335 233 C 337.750 229.560, 340 226.577, 340 226.373 C 340 225.237, 338.682 226.607, 334.572 232.011 M 270.144 237.750 C 268.256 241.316, 265.927 247.467, 266.831 246.500 C 267.946 245.307, 272.066 236, 271.479 236 C 271.254 236, 270.653 236.787, 270.144 237.750 M 360.398 315.250 C 359.325 316.488, 357.559 318.625, 356.474 320 L 354.500 322.500 356.858 320.500 C 359.172 318.537, 363.516 313, 362.742 313 C 362.526 313, 361.471 314.012, 360.398 315.250 M 855.500 329.701 C 852.750 332.182, 851.850 333.277, 853.500 332.134 C 858.820 328.449, 861.482 326.148, 860.985 325.664 C 860.718 325.403, 858.250 327.220, 855.500 329.701 M 332.132 349.308 C 330.502 351.677, 328.456 354.207, 327.584 354.930 C 326.713 355.653, 326 356.689, 326 357.231 C 326 358.285, 333.469 349.680, 335.098 346.750 C 336.957 343.406, 335.079 345.025, 332.132 349.308 M 827.703 355.792 C 825.666 357.878, 824 359.956, 824 360.411 C 824 361.254, 828.499 356.918, 830.912 353.750 C 833.150 350.811, 831.609 351.792, 827.703 355.792 M 857.079 473.671 C 855.390 476.789, 854.164 479.497, 854.355 479.688 C 854.546 479.879, 856.146 477.328, 857.910 474.018 C 859.674 470.708, 860.900 468, 860.634 468 C 860.368 468, 858.768 470.552, 857.079 473.671 M 44.706 540.657 C 42.360 546.986, 43.206 547.269, 45.801 541.024 C 46.950 538.261, 47.561 536, 47.160 536 C 46.759 536, 45.655 538.095, 44.706 540.657 M 591.684 550.684 C 590.226 554.359, 589.195 557.528, 589.393 557.726 C 589.591 557.924, 590.954 555.087, 592.421 551.421 C 593.889 547.755, 594.920 544.586, 594.712 544.379 C 594.505 544.172, 593.142 547.009, 591.684 550.684 M 393.892 570.750 C 395.460 573.599, 400 579.453, 400 578.624 C 400 577.662, 394.075 569, 393.417 569 C 393.149 569, 393.363 569.788, 393.892 570.750 M 893 593.787 C 890.525 596.374, 889.625 597.600, 891 596.512 C 895.063 593.298, 899.305 588.997, 898.369 589.042 C 897.891 589.065, 895.475 591.200, 893 593.787 M 767.577 599.142 C 765.032 601.419, 763.122 603.455, 763.331 603.665 C 763.541 603.875, 765.915 602.016, 768.607 599.534 C 771.298 597.052, 773.208 595.017, 772.852 595.011 C 772.496 595.005, 770.122 596.864, 767.577 599.142 M 452.358 642.319 C 454.636 644.694, 457.400 647.276, 458.500 648.056 C 459.600 648.837, 458.040 646.894, 455.032 643.738 C 452.025 640.582, 449.261 638, 448.891 638 C 448.520 638, 450.081 639.943, 452.358 642.319 M 22.816 685.750 C 24.458 687.813, 27.058 690.625, 28.594 692 C 30.130 693.375, 28.982 691.688, 26.043 688.250 C 20.209 681.426, 18.034 679.740, 22.816 685.750 M 474.500 695.131 C 468.342 700.132, 467.617 700.949, 471.500 698.512 C 474.521 696.617, 480.930 690.983, 480 691.040 C 479.725 691.057, 477.250 692.898, 474.500 695.131 M 507.534 830.250 C 507.182 832.587, 506.690 835.850, 506.442 837.500 C 506.092 839.821, 506.185 840.048, 506.851 838.500 C 507.844 836.191, 509.289 826, 508.622 826 C 508.377 826, 507.887 827.913, 507.534 830.250 M 569.016 946.149 C 568.403 948.542, 567.672 951.175, 567.391 952 C 567.067 952.955, 567.216 953.136, 567.803 952.500 C 568.844 951.370, 571.104 942.770, 570.515 942.181 C 570.304 941.971, 569.630 943.756, 569.016 946.149" stroke="none" fill="#ec3c34" fill-rule="evenodd"/><path d="M 221.323 1.861 C 220.762 2.763, 220.420 4.287, 220.563 5.250 C 220.706 6.213, 220.465 7, 220.028 7 C 219.591 7, 219.188 8.237, 219.131 9.750 C 218.905 15.825, 218.565 18, 217.840 18 C 217.422 18, 217.119 19.237, 217.166 20.750 C 217.212 22.262, 216.939 24.625, 216.557 26 C 216.176 27.375, 215.692 29.625, 215.483 31 C 215.274 32.375, 214.812 35.075, 214.455 37 C 214.099 38.925, 213.735 41.400, 213.647 42.500 C 213.559 43.600, 213.210 44.950, 212.873 45.500 C 212.535 46.050, 212.386 47.288, 212.541 48.250 C 212.696 49.213, 212.509 50, 212.126 50 C 211.742 50, 211.396 50.788, 211.356 51.750 C 211.220 55.016, 210.112 62.010, 209.598 62.841 C 208.885 63.995, 207.750 69.955, 207.616 73.250 C 207.555 74.763, 207.206 76, 206.841 76 C 206.476 76, 206.304 76.787, 206.460 77.750 C 206.616 78.713, 206.372 79.971, 205.918 80.546 C 205.465 81.121, 205.092 82.471, 205.089 83.546 C 205.085 85.376, 204.697 87.726, 203.609 92.500 C 203.358 93.600, 203.081 94.500, 202.993 94.500 C 202.771 94.500, 201.961 98.900, 201.521 102.500 C 201.319 104.150, 201.082 105.500, 200.994 105.500 C 200.905 105.500, 200.676 106.400, 200.484 107.500 C 200.071 109.868, 199.514 111.941, 198.735 114 C 198.207 115.396, 198.049 116.812, 197.925 121.250 C 197.898 122.212, 197.482 123, 197 123 C 196.518 123, 196.107 123.787, 196.085 124.750 C 196.038 126.833, 195.256 131.500, 194.954 131.500 C 194.838 131.500, 194.583 132.850, 194.388 134.500 C 193.778 139.664, 193.686 140, 192.891 140 C 192.464 140, 192.288 140.900, 192.500 142 C 192.712 143.100, 192.501 144, 192.031 144 C 191.561 144, 191.304 144.787, 191.460 145.750 C 191.616 146.713, 191.336 148.015, 190.838 148.643 C 190.339 149.272, 189.754 151.072, 189.536 152.643 C 188.615 159.273, 187.763 163.563, 187.179 164.500 C 186.837 165.050, 186.457 165.950, 186.337 166.500 C 186.216 167.050, 185.866 168.513, 185.558 169.750 C 185.251 170.988, 184.801 172.902, 184.557 174.004 C 184.313 175.106, 183.759 176.568, 183.325 177.254 C 182.892 177.939, 182.466 179.793, 182.379 181.372 C 182.293 182.952, 181.664 184.590, 180.983 185.011 C 180.301 185.432, 180.053 186.277, 180.431 186.888 C 180.809 187.500, 180.656 188, 180.090 188 C 179.525 188, 179.323 188.678, 179.641 189.508 C 179.960 190.337, 179.491 192.128, 178.600 193.487 C 177.710 194.846, 176.887 197.093, 176.772 198.479 C 176.658 199.866, 176.164 201, 175.675 201 C 175.186 201, 175.045 201.675, 175.362 202.500 C 175.678 203.325, 175.475 204, 174.910 204 C 174.344 204, 174.141 204.419, 174.457 204.931 C 174.774 205.443, 174.568 206.149, 174 206.500 C 173.432 206.851, 173.238 207.577, 173.570 208.113 C 173.901 208.649, 173.692 209.666, 173.106 210.372 C 172.520 211.079, 171.905 212.522, 171.741 213.578 C 171.577 214.635, 171.091 216.063, 170.662 216.750 C 170.233 217.438, 170.149 218, 170.476 218 C 170.803 218, 170.514 219.012, 169.834 220.250 C 169.154 221.487, 168.450 223.390, 168.270 224.479 C 168.090 225.567, 167.541 226.859, 167.050 227.350 C 166.558 227.842, 166.394 228.864, 166.685 229.622 C 166.976 230.380, 166.765 231, 166.215 231 C 165.363 231, 164.871 232.115, 163.457 237.250 C 163.343 237.662, 163.137 238.225, 163 238.500 C 162.614 239.272, 162.342 240.232, 161.515 243.750 C 161.094 245.537, 160.356 247, 159.875 247 C 159.394 247, 159.089 247.338, 159.198 247.750 C 159.430 248.627, 158.309 252.257, 156.496 256.500 C 155.042 259.903, 153.773 263.143, 153.461 264.250 C 153.345 264.663, 153.140 265.337, 153.007 265.750 C 152.873 266.163, 152.816 266.838, 152.882 267.250 C 152.947 267.663, 152.523 268, 151.941 268 C 151.359 268, 151.152 268.437, 151.483 268.972 C 151.813 269.506, 151.388 271.005, 150.538 272.302 C 149.688 273.599, 149.295 274.961, 149.663 275.330 C 150.032 275.698, 149.857 276, 149.275 276 C 148.163 276, 146.527 280.612, 146.881 282.750 C 146.995 283.437, 146.618 284, 146.044 284 C 145.470 284, 145 284.916, 145 286.035 C 145 287.155, 144.273 289.180, 143.385 290.535 C 142.497 291.891, 142.102 293, 142.507 293 C 142.913 293, 142.744 293.604, 142.131 294.342 C 141.519 295.080, 141.313 295.980, 141.675 296.342 C 142.037 296.704, 141.782 297, 141.108 297 C 140.434 297, 140.160 297.450, 140.500 298 C 140.840 298.550, 140.615 299, 140 299 C 139.385 299, 139.114 299.375, 139.398 299.834 C 139.681 300.293, 139.013 302.488, 137.912 304.712 C 136.812 306.936, 135.679 310.039, 135.395 311.607 C 135.111 313.175, 134.343 314.798, 133.689 315.213 C 133.035 315.629, 132.893 315.976, 133.372 315.985 C 133.852 315.993, 133.744 316.604, 133.131 317.342 C 132.519 318.080, 132.313 318.980, 132.675 319.342 C 133.037 319.704, 132.822 320, 132.198 320 C 131.574 320, 131.300 320.617, 131.589 321.371 C 131.878 322.125, 131.385 323.472, 130.494 324.363 C 129.602 325.255, 129.121 326.387, 129.425 326.879 C 129.729 327.371, 129.287 328.346, 128.443 329.047 C 127.600 329.747, 127.128 330.890, 127.395 331.587 C 127.662 332.284, 127.233 333.392, 126.441 334.049 C 125.648 334.707, 125 336.096, 125 337.136 C 125 339.039, 124.701 339.792, 121.586 345.750 C 120.652 347.538, 120.227 349, 120.643 349 C 121.060 349, 120.860 349.540, 120.200 350.200 C 119.540 350.860, 119 352.242, 119 353.271 C 119 354.301, 118.321 355.822, 117.491 356.652 C 116.661 357.482, 116.237 358.575, 116.550 359.081 C 116.862 359.586, 116.761 360.563, 116.324 361.250 C 115.888 361.938, 115.492 362.725, 115.444 363 C 115.296 363.854, 112.845 369.365, 111.331 372.250 C 110.537 373.762, 110.174 375, 110.525 375 C 110.876 375, 110.140 376.655, 108.891 378.677 C 107.641 380.699, 107.157 382.021, 107.817 381.613 C 109.204 380.756, 107.479 385.392, 105.441 388 C 104.453 389.264, 103.734 391.377, 102.804 395.746 C 102.715 396.160, 102.022 397.121, 101.264 397.879 C 100.506 398.637, 100.122 399.875, 100.411 400.629 C 100.700 401.383, 100.537 402, 100.048 402 C 99.559 402, 98.845 403.463, 98.462 405.250 C 98.078 407.038, 97.493 408.950, 97.161 409.500 C 96.829 410.050, 96.419 411.390, 96.250 412.479 C 96.081 413.567, 95.506 414.894, 94.971 415.429 C 94.437 415.963, 94 417.155, 94 418.078 C 94 419, 93.330 420.311, 92.511 420.991 C 91.692 421.671, 91.300 422.676, 91.639 423.225 C 91.979 423.774, 91.852 424.511, 91.358 424.862 C 89.936 425.872, 87.916 431.055, 88.546 432.075 C 88.861 432.584, 88.615 433, 88 433 C 87.385 433, 87.160 433.450, 87.500 434 C 87.840 434.550, 87.641 435, 87.059 435 C 86.477 435, 86 435.873, 86 436.941 C 86 438.009, 85.519 439.179, 84.932 439.542 C 84.344 439.905, 84.100 440.819, 84.389 441.572 C 84.678 442.326, 84.274 443.583, 83.490 444.367 C 82.706 445.151, 81.801 447.293, 81.477 449.128 C 81.154 450.963, 80.195 453.232, 79.347 454.169 C 78.498 455.107, 78.100 456.352, 78.461 456.937 C 78.822 457.522, 78.641 458, 78.059 458 C 77.477 458, 77.053 458.337, 77.118 458.750 C 77.184 459.163, 77.150 459.725, 77.044 460 C 76.938 460.275, 76.647 461.625, 76.397 463 C 76.147 464.375, 75.502 465.651, 74.965 465.835 C 74.427 466.020, 74.242 466.582, 74.553 467.085 C 74.864 467.588, 74.681 468, 74.147 468 C 73.613 468, 72.870 469.809, 72.497 472.020 C 72.123 474.231, 71.156 476.701, 70.347 477.510 C 69.539 478.318, 68.809 479.884, 68.726 480.990 C 68.643 482.095, 68.194 483, 67.728 483 C 67.263 483, 67.165 483.458, 67.511 484.018 C 67.857 484.578, 67.182 486.587, 66.010 488.483 C 64.839 490.379, 63.655 493.173, 63.379 494.694 C 63.103 496.214, 62.489 497.698, 62.013 497.992 C 61.537 498.286, 60.601 500.771, 59.933 503.513 C 59.265 506.256, 58.112 509.205, 57.371 510.066 C 56.630 510.927, 55.732 513.177, 55.375 515.066 C 55.018 516.955, 54.068 519.259, 53.265 520.187 C 52.461 521.115, 52.100 522.352, 52.461 522.937 C 52.822 523.522, 52.737 524, 52.272 524 C 51.806 524, 51.354 524.950, 51.267 526.112 C 51.179 527.273, 50.395 529.011, 49.524 529.974 C 48.653 530.936, 47.754 533.191, 47.527 534.985 C 47.300 536.778, 45.921 540.685, 44.462 543.666 C 43.004 546.648, 41.721 549.697, 41.611 550.443 C 41.502 551.188, 40.831 552.499, 40.120 553.355 C 39.409 554.212, 39.087 555.331, 39.403 555.843 C 39.719 556.355, 39.308 557.329, 38.489 558.009 C 37.670 558.689, 37 560.315, 37 561.622 C 37 562.930, 36.564 564, 36.031 564 C 35.499 564, 35.322 564.675, 35.638 565.500 C 35.955 566.325, 35.716 567, 35.107 567 C 34.498 567, 33.986 567.788, 33.968 568.750 C 33.951 569.712, 33.307 571.331, 32.537 572.347 C 31.767 573.363, 31.380 574.826, 31.676 575.597 C 31.972 576.369, 31.689 577, 31.048 577 C 30.407 577, 30.119 577.384, 30.409 577.853 C 30.699 578.322, 30.290 579.559, 29.500 580.603 C 28.710 581.646, 28.049 583.513, 28.032 584.750 C 28.014 585.987, 27.523 587, 26.941 587 C 26.359 587, 26.160 587.450, 26.500 588 C 26.840 588.550, 26.656 589, 26.090 589 C 25.525 589, 25.300 589.617, 25.589 590.371 C 25.878 591.125, 25.510 592.363, 24.771 593.121 C 24.032 593.879, 23.354 595.585, 23.264 596.910 C 23.174 598.236, 22.589 599.636, 21.965 600.022 C 21.340 600.408, 20.868 601.011, 20.915 601.362 C 21.255 603.907, 20.854 605.028, 19.830 604.395 C 19.054 603.915, 18.866 604.208, 19.271 605.263 C 19.606 606.138, 19.227 607.397, 18.427 608.060 C 17.628 608.724, 17.075 609.769, 17.199 610.383 C 17.507 611.912, 13.970 621.134, 12.328 623.081 C 11.595 623.951, 11.297 624.963, 11.664 625.331 C 12.032 625.699, 11.782 626, 11.108 626 C 10.434 626, 10.115 626.378, 10.401 626.840 C 10.686 627.301, 10.037 629.326, 8.958 631.340 C 7.879 633.353, 7.213 635, 7.478 635 C 7.743 635, 6.830 637.025, 5.448 639.500 C 4.066 641.975, 3.245 644, 3.623 644 C 4.001 644, 3.495 644.900, 2.500 646 C 1.505 647.100, 1.075 648, 1.545 648 C 2.015 648, 1.860 648.540, 1.200 649.200 C -0.769 651.169, -0.134 655.340, 2.517 657.855 C 3.883 659.150, 5 660.791, 5 661.502 C 5 662.213, 6.107 664.078, 7.459 665.647 C 8.812 667.216, 10.828 669.571, 11.939 670.879 C 13.050 672.188, 13.716 673.650, 13.420 674.129 C 13.124 674.608, 13.610 675, 14.500 675 C 15.390 675, 15.891 675.368, 15.613 675.818 C 15.335 676.268, 15.959 677.250, 17 678 C 18.041 678.750, 18.696 679.683, 18.455 680.073 C 18.214 680.462, 19.153 681.525, 20.540 682.435 C 21.928 683.344, 22.791 684.529, 22.458 685.069 C 22.124 685.608, 22.232 685.926, 22.698 685.775 C 23.164 685.624, 25.335 687.521, 27.523 689.992 C 32.975 696.151, 42.269 705, 43.284 705 C 43.743 705, 43.797 705.520, 43.405 706.155 C 43.003 706.804, 43.126 707.040, 43.687 706.693 C 44.235 706.355, 46.176 707.618, 48 709.500 C 49.824 711.382, 51.696 712.688, 52.158 712.402 C 52.621 712.116, 53 712.434, 53 713.108 C 53 713.782, 53.273 714.060, 53.607 713.727 C 53.940 713.393, 54.728 713.552, 55.357 714.079 C 61.756 719.442, 62.598 719.947, 61.485 717.750 C 61.137 717.063, 61.448 717.203, 62.176 718.062 C 63.627 719.774, 66.995 721.433, 68.375 721.117 C 68.856 721.007, 70.094 721.680, 71.125 722.613 C 72.156 723.546, 73 724.039, 73 723.707 C 73 723.375, 74.350 723.575, 76 724.150 C 77.650 724.725, 79 725.551, 79 725.984 C 79 726.418, 81.015 727.075, 83.477 727.444 C 85.939 727.813, 88.169 728.465, 88.433 728.892 C 88.697 729.319, 90.762 729.741, 93.023 729.830 C 96.705 729.974, 97.066 729.784, 96.499 727.995 C 96.150 726.898, 96.277 726, 96.780 726 C 97.629 726, 98.167 722.677, 98.199 717.250 C 98.206 716.013, 98.574 715, 99.017 715 C 99.460 715, 99.696 714.212, 99.540 713.250 C 99.384 712.288, 99.611 711.050, 100.043 710.500 C 100.476 709.950, 100.824 709.275, 100.816 709 C 100.809 708.725, 101.101 706.475, 101.465 704 C 101.830 701.525, 102.224 698.825, 102.342 698 C 102.460 697.175, 102.926 695.908, 103.378 695.183 C 103.830 694.459, 103.989 693.656, 103.731 693.398 C 103.474 693.140, 103.907 690.133, 104.695 686.715 C 105.483 683.297, 106.126 679.712, 106.126 678.750 C 106.125 677.788, 106.520 677, 107.005 677 C 107.489 677, 107.712 676.100, 107.500 675 C 107.288 673.900, 107.511 673, 107.995 673 C 108.480 673, 108.861 672.212, 108.844 671.250 C 108.826 670.288, 109.123 668.375, 109.503 667 C 109.884 665.625, 110.241 663.487, 110.297 662.250 C 110.354 661.013, 110.685 660, 111.033 660 C 111.674 660, 111.885 659.021, 112.217 654.500 C 112.318 653.125, 112.664 652, 112.986 652 C 113.308 652, 113.623 651.212, 113.687 650.250 C 113.751 649.288, 114.115 647.150, 114.497 645.500 C 114.878 643.850, 115.338 641.825, 115.519 641 C 115.699 640.175, 115.919 639.500, 116.007 639.500 C 116.162 639.500, 116.858 635.782, 117.176 633.250 C 117.263 632.563, 117.666 632, 118.073 632 C 118.480 632, 118.591 631.151, 118.319 630.113 C 118.048 629.075, 118.295 627.936, 118.869 627.581 C 119.443 627.226, 119.659 626.275, 119.349 625.468 C 119.040 624.661, 119.332 624, 120 624 C 120.668 624, 120.966 623.354, 120.663 622.565 C 120.360 621.775, 120.564 620.979, 121.117 620.794 C 121.669 620.610, 122.153 618.894, 122.193 616.980 C 122.233 615.066, 122.747 612.600, 123.337 611.500 C 123.926 610.400, 124.441 609.050, 124.482 608.500 C 124.658 606.153, 126.288 600.673, 127.515 598.308 C 128.245 596.902, 128.622 595.178, 128.353 594.477 C 128.084 593.776, 128.344 592.905, 128.932 592.542 C 129.519 592.179, 130 590.334, 130 588.441 C 130 586.548, 130.399 585, 130.887 585 C 131.688 585, 132.205 583.212, 133.432 576.202 C 133.653 574.938, 134.360 573.271, 135.003 572.496 C 135.646 571.721, 135.901 570.649, 135.570 570.113 C 135.238 569.577, 135.455 568.837, 136.052 568.468 C 136.648 568.099, 136.895 567.168, 136.600 566.399 C 136.304 565.629, 136.442 565, 136.906 565 C 137.370 565, 138.094 563.537, 138.515 561.750 C 139.370 558.114, 139.657 557.115, 139.952 556.750 C 140.140 556.517, 140.623 554.695, 141.278 551.750 C 141.431 551.063, 141.908 549.938, 142.337 549.250 C 142.767 548.562, 142.840 547.550, 142.500 547 C 142.160 546.450, 142.407 546, 143.048 546 C 143.689 546, 143.955 545.325, 143.638 544.500 C 143.322 543.675, 143.547 543, 144.138 543 C 144.730 543, 144.955 542.325, 144.638 541.500 C 144.322 540.675, 144.499 540, 145.031 540 C 145.564 540, 146 538.902, 146 537.559 C 146 536.216, 146.430 534.852, 146.956 534.527 C 147.482 534.202, 147.659 533.275, 147.349 532.468 C 147.040 531.661, 147.270 531, 147.862 531 C 148.453 531, 148.696 530.371, 148.400 529.601 C 148.105 528.832, 148.352 527.901, 148.948 527.532 C 149.545 527.163, 149.774 526.443, 149.457 525.931 C 149.141 525.419, 149.260 525, 149.723 525 C 150.185 525, 150.664 523.788, 150.787 522.306 C 150.909 520.824, 151.468 519.329, 152.028 518.983 C 152.588 518.636, 153.261 517.374, 153.523 516.177 C 153.786 514.979, 154.208 513.054, 154.462 511.898 C 154.716 510.742, 155.430 509.187, 156.048 508.442 C 156.666 507.697, 156.882 506.618, 156.527 506.044 C 156.172 505.470, 156.359 505, 156.941 505 C 157.523 505, 158 503.902, 158 502.559 C 158 501.216, 158.457 499.835, 159.016 499.490 C 159.575 499.144, 159.774 498.443, 159.457 497.931 C 159.141 497.419, 159.385 497, 160 497 C 160.615 497, 160.859 496.581, 160.543 496.069 C 160.226 495.557, 160.455 494.837, 161.052 494.468 C 161.648 494.099, 161.895 493.168, 161.600 492.399 C 161.304 491.629, 161.403 491, 161.819 491 C 162.234 491, 162.650 489.994, 162.743 488.765 C 162.835 487.535, 163.384 486.372, 163.962 486.179 C 164.540 485.987, 164.756 485.414, 164.442 484.907 C 164.129 484.400, 164.580 483.277, 165.445 482.412 C 166.311 481.547, 166.761 480.422, 166.445 479.912 C 166.130 479.402, 166.580 478.277, 167.445 477.412 C 168.311 476.547, 168.782 475.456, 168.493 474.988 C 168.204 474.521, 168.432 473.851, 169 473.500 C 169.568 473.149, 169.762 472.423, 169.430 471.887 C 169.099 471.351, 169.334 470.303, 169.952 469.558 C 170.570 468.813, 171.273 467.179, 171.514 465.926 C 171.756 464.672, 172.526 463.283, 173.227 462.839 C 173.927 462.394, 174.152 462.024, 173.727 462.015 C 173.302 462.007, 173.691 460.875, 174.592 459.500 C 175.493 458.125, 175.902 457, 175.500 457 C 175.098 457, 175.543 455.820, 176.489 454.377 C 177.434 452.934, 177.695 452.070, 177.070 452.457 C 176.444 452.844, 176.846 451.662, 177.962 449.830 C 179.079 447.999, 179.994 445.520, 179.996 444.321 C 179.998 443.123, 180.704 441.439, 181.564 440.579 C 182.424 439.719, 182.804 438.492, 182.409 437.853 C 181.963 437.130, 182.127 436.961, 182.845 437.405 C 183.603 437.873, 184 437.239, 184 435.559 C 184 434.152, 184.477 433, 185.059 433 C 185.641 433, 185.809 432.500, 185.431 431.888 C 185.053 431.277, 185.308 430.428, 185.997 430.002 C 186.686 429.576, 187.373 428.105, 187.524 426.733 C 187.675 425.361, 188.520 423.136, 189.402 421.789 C 190.285 420.442, 190.705 419.039, 190.337 418.670 C 189.968 418.302, 190.192 418, 190.833 418 C 191.475 418, 191.947 417.663, 191.882 417.250 C 191.544 415.114, 192.157 412.985, 193.495 411.648 C 194.317 410.826, 195.133 409.213, 195.308 408.063 C 195.484 406.914, 196.161 405.439, 196.814 404.786 C 197.466 404.134, 198 402.565, 198 401.300 C 198 400.035, 198.450 399, 199 399 C 199.550 399, 199.926 398.662, 199.836 398.250 C 199.496 396.695, 201.251 392.037, 202.598 390.919 C 203.369 390.279, 204 388.659, 204 387.319 C 204 385.713, 204.399 385.129, 205.170 385.605 C 205.942 386.082, 206.135 385.795, 205.739 384.761 C 205.408 383.899, 205.767 382.363, 206.537 381.347 C 207.307 380.331, 207.951 378.712, 207.968 377.750 C 207.986 376.788, 208.406 376, 208.902 376 C 209.978 376, 212.374 370.074, 212.076 368.150 C 211.960 367.407, 212.341 367.093, 212.922 367.452 C 213.563 367.848, 213.744 367.495, 213.382 366.552 C 213.053 365.696, 213.309 365, 213.952 365 C 214.593 365, 214.864 364.588, 214.553 364.085 C 214.242 363.582, 214.427 363.020, 214.965 362.835 C 215.502 362.651, 216.093 361.600, 216.276 360.500 C 216.460 359.400, 217.373 357.060, 218.305 355.300 C 219.237 353.539, 220 351.463, 220 350.685 C 220 349.906, 220.885 348.144, 221.967 346.769 C 223.049 345.393, 223.649 343.983, 223.301 343.634 C 222.952 343.285, 223.178 343, 223.802 343 C 224.426 343, 224.678 342.325, 224.362 341.500 C 224.045 340.675, 224.311 340, 224.952 340 C 225.593 340, 225.840 339.550, 225.500 339 C 225.160 338.450, 225.385 338, 226 338 C 226.615 338, 226.859 337.581, 226.543 337.069 C 226.226 336.557, 226.432 335.851, 227 335.500 C 227.568 335.149, 227.774 334.443, 227.457 333.931 C 227.141 333.419, 227.385 333, 228 333 C 228.615 333, 228.864 332.588, 228.553 332.085 C 228.242 331.582, 228.399 331.020, 228.902 330.835 C 229.405 330.651, 229.971 329.600, 230.158 328.500 C 230.346 327.400, 230.734 326.275, 231.020 326 C 232.130 324.934, 234.335 319.437, 234.129 318.250 C 234.010 317.563, 234.382 317, 234.956 317 C 235.530 317, 236 316.251, 236 315.335 C 236 314.420, 237.819 310.357, 240.041 306.307 C 242.264 302.257, 243.835 298.542, 243.532 298.052 C 243.229 297.562, 243.639 296.504, 244.443 295.700 C 245.247 294.896, 245.626 293.960, 245.286 293.619 C 244.945 293.279, 245.178 293, 245.802 293 C 246.450 293, 246.663 292.286, 246.299 291.336 C 245.835 290.128, 246.023 289.896, 246.985 290.490 C 247.865 291.035, 248.070 290.923, 247.597 290.156 C 247.205 289.522, 247.585 288.003, 248.442 286.779 C 249.299 285.556, 250 283.729, 250 282.718 C 250 281.708, 250.450 281.160, 251 281.500 C 251.870 282.038, 252.475 280.010, 252.118 277.750 C 252.053 277.337, 252.477 277, 253.059 277 C 253.641 277, 253.840 276.550, 253.500 276 C 253.160 275.450, 253.407 275, 254.048 275 C 254.689 275, 254.955 274.325, 254.638 273.500 C 254.322 272.675, 254.525 272, 255.090 272 C 255.656 272, 255.840 271.550, 255.500 271 C 255.160 270.450, 255.385 270, 256 270 C 256.615 270, 256.862 269.586, 256.550 269.081 C 256.237 268.575, 256.661 267.482, 257.491 266.652 C 258.321 265.822, 259 264.211, 259 263.071 C 259 261.932, 259.525 261, 260.167 261 C 260.808 261, 261.055 260.721, 260.714 260.381 C 260.374 260.040, 260.753 259.104, 261.557 258.300 C 262.361 257.496, 262.794 256.476, 262.520 256.033 C 262.246 255.589, 262.692 254.671, 263.511 253.991 C 264.330 253.311, 265 252, 265 251.078 C 265 250.155, 265.540 248.860, 266.200 248.200 C 266.860 247.540, 267.101 247, 266.736 247 C 265.822 247, 269.808 237.870, 271.574 235.919 C 272.361 235.049, 272.703 234.037, 272.336 233.669 C 271.968 233.301, 272.218 233, 272.892 233 C 273.566 233, 273.859 232.581, 273.543 232.069 C 273.226 231.557, 273.432 230.851, 274 230.500 C 274.568 230.149, 274.774 229.443, 274.457 228.931 C 274.141 228.419, 274.385 228, 275 228 C 275.615 228, 275.862 227.586, 275.550 227.081 C 275.237 226.575, 275.661 225.482, 276.491 224.652 C 277.321 223.822, 278 222.211, 278 221.071 C 278 219.932, 278.477 219, 279.059 219 C 279.641 219, 279.862 218.586, 279.550 218.081 C 279.237 217.575, 279.658 216.485, 280.485 215.658 C 281.312 214.830, 282.125 213.263, 282.291 212.174 C 282.457 211.086, 283.190 209.476, 283.919 208.598 C 284.648 207.719, 284.933 207, 284.551 207 C 284.169 207, 284.568 206.289, 285.438 205.419 C 286.307 204.550, 286.782 203.456, 286.493 202.988 C 286.204 202.521, 286.425 201.856, 286.984 201.510 C 287.543 201.165, 288 200.069, 288 199.076 C 288 198.082, 288.951 196.060, 290.114 194.582 C 291.277 193.104, 291.973 191.640, 291.662 191.328 C 291.350 191.017, 291.753 190.104, 292.557 189.300 C 293.361 188.496, 293.763 187.425, 293.450 186.919 C 293.138 186.414, 293.359 186, 293.941 186 C 294.523 186, 294.888 185.653, 294.750 185.230 C 294.405 184.167, 298.178 175.799, 299.732 174.179 C 300.927 172.933, 301.388 171.460, 301.118 169.750 C 301.053 169.338, 301.450 169, 302 169 C 302.550 169, 303 167.875, 303 166.500 C 303 165.125, 303.450 164, 304 164 C 304.550 164, 305 163.345, 305 162.544 C 305 161.743, 306.423 158.706, 308.163 155.794 C 309.903 152.882, 311.283 149.749, 311.231 148.831 C 311.179 147.913, 311.809 146.903, 312.632 146.588 C 313.454 146.272, 313.847 145.561, 313.504 145.007 C 313.162 144.453, 313.434 144, 314.108 144 C 314.782 144, 315.034 143.701, 314.668 143.335 C 314.303 142.969, 315.128 140.752, 316.502 138.407 C 317.876 136.062, 319 133.422, 319 132.541 C 319 131.659, 319.672 130.679, 320.494 130.364 C 321.316 130.048, 321.740 129.388, 321.435 128.895 C 321.131 128.403, 321.287 128, 321.783 128 C 322.278 128, 323.223 126.200, 323.882 124 C 324.541 121.800, 325.539 120, 326.099 120 C 326.660 120, 326.840 119.550, 326.500 119 C 326.160 118.450, 326.359 118, 326.941 118 C 327.523 118, 328 117.380, 328 116.622 C 328 115.865, 328.670 114.689, 329.489 114.009 C 330.308 113.329, 330.731 112.374, 330.430 111.887 C 330.129 111.399, 330.359 111, 330.941 111 C 331.523 111, 332 110.345, 332 109.545 C 332 108.745, 333.125 106.966, 334.500 105.591 C 335.875 104.216, 337 102.474, 337 101.720 C 337 100.966, 338.108 99.308, 339.461 98.036 C 341.400 96.215, 341.711 95.328, 340.926 93.862 C 340.378 92.838, 340.283 91.986, 340.715 91.970 C 341.147 91.953, 340.703 91.475, 339.729 90.908 C 338.755 90.341, 338.190 89.502, 338.473 89.043 C 338.757 88.585, 338.316 87.952, 337.494 87.636 C 336.672 87.321, 336 86.374, 336 85.531 C 336 84.689, 335.523 84, 334.941 84 C 334.359 84, 334.132 83.596, 334.437 83.102 C 334.743 82.608, 333.689 80.808, 332.095 79.102 C 330.501 77.396, 329.491 75.986, 329.849 75.970 C 330.207 75.953, 329.712 75.481, 328.750 74.920 C 327.788 74.359, 327 73.356, 327 72.691 C 327 72.025, 326.100 70.919, 325 70.232 C 323.900 69.545, 323 68.360, 323 67.599 C 323 66.837, 322.325 65.955, 321.500 65.638 C 320.675 65.322, 320 64.554, 320 63.933 C 320 63.312, 318.313 61.231, 316.250 59.309 C 314.188 57.388, 313.175 56.143, 314 56.544 C 314.825 56.945, 313.245 55.074, 310.489 52.386 C 307.733 49.699, 303.293 45.250, 300.623 42.500 C 297.952 39.750, 296.131 38.175, 296.575 39 C 297.270 40.289, 297.147 40.308, 295.703 39.137 C 294.778 38.387, 294.229 37.438, 294.482 37.029 C 294.735 36.619, 293.380 35.443, 291.471 34.415 C 289.562 33.386, 288 31.946, 288 31.214 C 288 30.481, 287.624 30.115, 287.164 30.399 C 286.703 30.683, 284.359 29.135, 281.954 26.958 C 279.548 24.781, 277.285 23, 276.925 23 C 276.565 23, 275 22.002, 273.449 20.781 C 271.898 19.561, 270.150 18.488, 269.564 18.396 C 268.979 18.305, 266.093 16.604, 263.152 14.617 C 260.210 12.629, 257.398 11.254, 256.902 11.561 C 256.406 11.867, 256 11.691, 256 11.169 C 256 10.648, 253.975 9.623, 251.500 8.892 C 249.025 8.161, 247 7.226, 247 6.813 C 247 6.400, 246.371 6.304, 245.601 6.600 C 244.832 6.895, 243.901 6.648, 243.532 6.052 C 243.163 5.455, 242.443 5.226, 241.931 5.543 C 241.419 5.859, 241 5.593, 241 4.952 C 241 4.311, 240.325 4.045, 239.500 4.362 C 238.675 4.678, 238 4.576, 238 4.135 C 238 3.694, 237.438 3.285, 236.750 3.225 C 235.264 3.097, 231.500 2.218, 231.500 2 C 231.500 1.726, 227.563 0.847, 224.921 0.531 C 223.349 0.343, 221.944 0.862, 221.323 1.861 M 591.141 4.144 C 589.862 4.617, 588.407 4.751, 587.908 4.443 C 587.408 4.134, 587 4.411, 587 5.058 C 587 5.775, 586.017 6.045, 584.476 5.751 C 583.088 5.485, 581.707 5.665, 581.407 6.150 C 581.107 6.636, 580.443 6.774, 579.931 6.457 C 579.419 6.141, 579 6.344, 579 6.910 C 579 7.475, 578.325 7.678, 577.500 7.362 C 576.674 7.045, 576 7.332, 576 8 C 576 8.668, 575.326 8.955, 574.500 8.638 C 573.675 8.322, 573 8.547, 573 9.138 C 573 9.730, 572.325 9.955, 571.500 9.638 C 570.675 9.322, 570 9.525, 570 10.090 C 570 10.656, 569.550 10.840, 569 10.500 C 568.450 10.160, 568 10.359, 568 10.941 C 568 11.523, 566.907 12, 565.571 12 C 564.236 12, 562.427 12.716, 561.551 13.591 C 560.676 14.467, 559.403 15.265, 558.723 15.364 C 558.043 15.464, 556.377 16.323, 555.021 17.273 C 553.665 18.223, 551.840 19, 550.966 19 C 550.092 19, 548.392 19.918, 547.189 21.039 C 545.985 22.160, 544.993 22.723, 544.985 22.289 C 544.976 21.855, 544.594 22.092, 544.135 22.816 C 543.675 23.541, 542.645 24.229, 541.844 24.347 C 541.043 24.464, 539.393 25.487, 538.177 26.620 C 536.961 27.753, 534.736 29.314, 533.233 30.088 C 531.730 30.863, 530.140 32.060, 529.700 32.748 C 529.260 33.437, 528.296 34, 527.556 34 C 526.817 34, 524.766 35.350, 523 37 C 521.234 38.650, 519.209 40, 518.501 40 C 517.793 40, 516.944 40.704, 516.614 41.563 C 516.284 42.423, 515.558 42.845, 515 42.500 C 514.442 42.155, 513.716 42.577, 513.386 43.437 C 513.056 44.296, 512.244 45, 511.581 45 C 510.918 45, 509.378 46.349, 508.159 47.999 C 506.940 49.648, 504.348 51.664, 502.399 52.478 C 500.450 53.292, 499.140 54.418, 499.487 54.979 C 499.834 55.541, 499.546 56, 498.847 56 C 498.147 56, 496.658 57.034, 495.538 58.297 C 494.417 59.561, 493.916 59.898, 494.424 59.047 C 494.933 58.196, 493.320 59.525, 490.841 62 C 483.852 68.979, 480.283 72, 479.031 72 C 478.399 72, 478.160 72.450, 478.500 73 C 478.840 73.550, 478.749 74, 478.299 74 C 477.848 74, 475.684 75.731, 473.490 77.848 C 471.295 79.964, 468.475 82.236, 467.222 82.898 C 465.969 83.559, 465.208 84.528, 465.531 85.050 C 465.854 85.573, 465.616 86, 465.002 86 C 463.949 86, 435.585 114.275, 431.689 119.207 C 430.693 120.468, 430.197 120.825, 430.586 120 C 431.172 118.757, 431.055 118.722, 429.897 119.800 C 429.129 120.515, 428.497 121.415, 428.492 121.800 C 428.488 122.185, 426.126 124.791, 423.242 127.591 C 420.359 130.391, 418 133.056, 418 133.512 C 418 133.968, 415.525 136.682, 412.500 139.542 C 409.475 142.403, 407 145.224, 407 145.813 C 407 146.401, 406.480 147.203, 405.845 147.595 C 405.130 148.038, 404.962 147.870, 405.405 147.155 C 405.797 146.520, 405.910 146, 405.656 146 C 405.402 146, 403.546 148.483, 401.532 151.518 C 399.413 154.709, 397.409 156.753, 396.780 156.364 C 396.169 155.987, 395.975 156.150, 396.337 156.736 C 396.692 157.311, 395.862 158.516, 394.491 159.414 C 393.121 160.312, 391.987 161.598, 391.971 162.273 C 391.938 163.634, 386.469 169.973, 385.264 170.046 C 384.844 170.072, 383.150 171.901, 381.500 174.112 C 379.850 176.323, 377.712 178.877, 376.750 179.788 C 375.788 180.699, 375 181.911, 375 182.482 C 375 183.052, 374.100 184.081, 373 184.768 C 371.900 185.455, 371 186.588, 371 187.286 C 371 187.984, 369.762 189.685, 368.250 191.067 C 364.210 194.758, 361.081 198.748, 361.724 199.391 C 362.033 199.700, 361.512 200.250, 360.567 200.613 C 359.621 200.976, 358.432 202.363, 357.925 203.697 C 357.418 205.030, 356.553 205.842, 356.002 205.501 C 355.451 205.161, 355 205.518, 355 206.295 C 355 207.072, 353.875 208.922, 352.500 210.405 C 351.125 211.889, 350 213.352, 350 213.657 C 350 213.962, 348.875 215.548, 347.500 217.182 C 346.125 218.816, 345 219.859, 345 219.500 C 345 219.141, 343.875 220.184, 342.500 221.818 C 341.125 223.452, 340 225.224, 340 225.757 C 340 227.452, 334.302 233.966, 333.474 233.218 C 333.037 232.823, 332.966 233.002, 333.316 233.615 C 333.665 234.229, 332.128 236.591, 329.899 238.865 C 327.670 241.139, 326.126 243, 326.468 243 C 326.811 243, 325.945 244.145, 324.545 245.545 C 323.145 246.945, 322 248.581, 322 249.181 C 322 249.780, 320.987 251.245, 319.750 252.435 C 315.863 256.175, 313.366 259.411, 315 258.591 C 315.825 258.177, 315.262 258.978, 313.750 260.371 C 312.238 261.764, 311 263.401, 311 264.008 C 311 264.616, 309.550 266.437, 307.777 268.056 C 306.005 269.675, 304.920 271, 305.366 271 C 305.812 271, 305.125 272.310, 303.839 273.910 C 299.293 279.567, 298 281.416, 298 282.262 C 298 282.733, 297.582 282.860, 297.072 282.544 C 296.562 282.229, 295.839 282.931, 295.467 284.105 C 295.094 285.278, 293.496 287.592, 291.915 289.247 C 290.333 290.901, 289.282 292.648, 289.579 293.128 C 289.875 293.607, 289.738 294, 289.275 294 C 288.811 294, 287.575 295.462, 286.528 297.250 C 285.482 299.038, 283.922 301.026, 283.063 301.669 C 282.203 302.313, 281.461 303.213, 281.414 303.669 C 281.213 305.597, 279.731 307.952, 279.002 307.501 C 278.568 307.233, 277.927 308.154, 277.577 309.548 C 277.228 310.942, 276.595 311.867, 276.171 311.606 C 275.747 311.344, 274.827 312.047, 274.126 313.169 C 273.079 314.846, 273.088 315.071, 274.176 314.433 C 275.541 313.632, 273.207 316.689, 269.250 320.886 C 268.012 322.199, 267 323.838, 267 324.529 C 267 325.221, 266.296 326.056, 265.437 326.386 C 264.577 326.716, 264.155 327.442, 264.500 328 C 264.845 328.558, 264.426 329.283, 263.569 329.612 C 262.712 329.941, 262.260 330.612, 262.565 331.105 C 262.869 331.597, 262.672 332, 262.126 332 C 261.581 332, 260.847 332.907, 260.495 334.015 C 260.144 335.123, 259.438 335.771, 258.928 335.456 C 258.418 335.140, 258 335.754, 258 336.819 C 258 337.884, 256.987 339.507, 255.750 340.424 C 254.512 341.342, 254.175 341.781, 255 341.399 C 255.918 340.975, 255.724 341.520, 254.500 342.805 C 251.006 346.472, 249.899 347.999, 250.711 348.030 C 251.145 348.047, 250.703 348.525, 249.729 349.092 C 248.755 349.659, 248.221 350.548, 248.542 351.069 C 248.864 351.589, 248.426 352.283, 247.569 352.612 C 246.712 352.941, 246.231 353.565, 246.500 354 C 246.769 354.435, 246.340 355.039, 245.547 355.344 C 244.753 355.648, 243.407 357.246, 242.554 358.895 C 241.702 360.543, 239.878 363.107, 238.502 364.592 C 236.210 367.066, 235.604 368.343, 235.856 370.172 C 235.906 370.542, 234.713 372.166, 233.203 373.783 C 230.671 376.493, 230.537 377.036, 231.479 380.791 C 232.041 383.029, 232.838 385.192, 233.250 385.597 C 233.663 386.002, 234 387.308, 234 388.500 C 234 389.692, 234.322 390.988, 234.715 391.381 C 235.108 391.774, 235.503 393.087, 235.592 394.298 C 235.682 395.509, 236.333 397.850, 237.038 399.500 C 237.744 401.150, 238.229 403.063, 238.117 403.750 C 238.004 404.438, 238.409 405, 239.015 405 C 239.622 405, 239.828 405.470, 239.473 406.044 C 239.118 406.618, 239.372 407.743, 240.036 408.544 C 240.701 409.345, 240.910 410, 240.500 410 C 240.090 410, 240.256 410.604, 240.869 411.342 C 241.481 412.080, 241.697 412.969, 241.349 413.318 C 241 413.666, 241.284 414.638, 241.980 415.476 C 242.676 416.314, 242.910 417, 242.500 417 C 242.090 417, 242.251 417.598, 242.858 418.328 C 243.464 419.059, 244.161 420.747, 244.406 422.078 C 244.651 423.410, 244.916 424.500, 244.995 424.500 C 245.073 424.500, 245.309 425.809, 245.518 427.409 C 245.727 429.009, 246.409 430.635, 247.034 431.021 C 247.659 431.407, 248.050 431.898, 247.903 432.112 C 247.756 432.325, 247.989 433.625, 248.420 435 C 249.141 437.299, 249.572 438.956, 250.502 443 C 250.692 443.825, 250.938 444.613, 251.048 444.750 C 251.159 444.887, 251.363 445.450, 251.500 446 C 251.637 446.550, 251.863 447.225, 252 447.500 C 252.137 447.775, 252.363 448.450, 252.500 449 C 252.637 449.550, 252.860 450.337, 252.993 450.750 C 253.127 451.163, 253.184 451.838, 253.118 452.250 C 253.053 452.663, 253.436 453, 253.969 453 C 254.501 453, 254.678 453.675, 254.362 454.500 C 254.045 455.326, 254.332 456, 255 456 C 255.668 456, 255.972 456.631, 255.676 457.402 C 255.380 458.173, 255.424 459.090, 255.773 459.440 C 256.123 459.790, 256.570 461.296, 256.766 462.788 C 256.962 464.280, 257.548 465.651, 258.068 465.835 C 258.587 466.020, 258.766 466.570, 258.465 467.057 C 258.163 467.545, 258.606 468.995, 259.448 470.280 C 260.290 471.566, 261.443 475.066, 262.009 478.059 C 262.576 481.051, 263.455 483.642, 263.963 483.815 C 264.472 483.988, 264.663 484.714, 264.389 485.429 C 264.115 486.143, 264.852 488.573, 266.027 490.827 C 267.202 493.082, 267.875 495.393, 267.523 495.963 C 267.170 496.533, 267.284 497, 267.774 497 C 268.265 497, 268.706 497.563, 268.753 498.250 C 268.940 500.962, 269.980 504.271, 271.048 505.558 C 271.666 506.303, 271.882 507.382, 271.527 507.956 C 271.172 508.530, 271.434 509, 272.108 509 C 272.782 509, 273.037 509.296, 272.675 509.658 C 272.313 510.020, 272.479 510.873, 273.044 511.553 C 273.608 512.233, 273.983 513.174, 273.876 513.645 C 273.656 514.617, 274.671 517.619, 276.142 520.347 C 276.690 521.363, 276.900 522.433, 276.609 522.724 C 276.318 523.015, 276.748 524.547, 277.566 526.127 C 278.383 527.707, 278.725 529, 278.326 529 C 277.927 529, 278.140 529.540, 278.800 530.200 C 279.460 530.860, 280 532.398, 280 533.617 C 280 534.836, 280.446 535.983, 280.991 536.167 C 281.537 536.350, 282.085 537.738, 282.209 539.250 C 282.334 540.763, 282.737 542, 283.105 542 C 283.685 542, 284.714 545.835, 285.183 549.750 C 285.266 550.438, 285.735 551, 286.226 551 C 286.716 551, 286.822 551.478, 286.461 552.063 C 286.100 552.648, 286.567 553.969, 287.500 555 C 288.433 556.031, 288.900 557.352, 288.539 557.937 C 288.178 558.522, 288.385 559, 289 559 C 289.615 559, 289.865 559.409, 289.556 559.910 C 289.247 560.410, 289.968 562.997, 291.159 565.660 C 292.350 568.322, 293.232 571.063, 293.119 571.750 C 293.005 572.438, 293.430 573, 294.063 573 C 294.696 573, 294.976 573.620, 294.685 574.378 C 294.394 575.136, 294.580 576.180, 295.099 576.699 C 296.083 577.683, 299.809 587.094, 300.534 590.427 C 300.765 591.486, 301.379 592.779, 301.898 593.298 C 302.418 593.818, 302.606 594.864, 302.315 595.622 C 302.024 596.380, 302.332 597, 303 597 C 303.668 597, 303.960 597.662, 303.649 598.471 C 303.339 599.280, 303.773 600.630, 304.614 601.471 C 305.455 602.312, 305.831 603, 305.449 603 C 305.067 603, 305.315 603.675, 306 604.500 C 306.685 605.325, 306.949 606, 306.587 606 C 306.226 606, 306.492 607.013, 307.179 608.250 C 308.525 610.672, 308.683 611.169, 308.875 613.559 C 308.944 614.416, 309.450 614.840, 310 614.500 C 310.567 614.149, 311 614.990, 311 616.441 C 311 617.848, 311.498 619, 312.107 619 C 312.716 619, 312.966 619.646, 312.663 620.436 C 312.360 621.226, 312.987 622.985, 314.056 624.344 C 315.125 625.703, 316 627.757, 316 628.908 C 316 630.058, 316.477 631, 317.059 631 C 317.641 631, 317.862 631.414, 317.550 631.919 C 317.237 632.425, 317.639 633.496, 318.443 634.300 C 319.247 635.104, 319.626 636.040, 319.286 636.381 C 318.945 636.721, 319.178 637, 319.802 637 C 320.426 637, 320.678 637.675, 320.362 638.500 C 320.045 639.325, 320.232 640, 320.776 640 C 321.679 640, 322.649 642.092, 323.548 645.982 C 323.737 646.797, 324.340 647.613, 324.889 647.796 C 325.438 647.979, 325.611 648.849, 325.274 649.729 C 324.866 650.791, 325.053 651.085, 325.830 650.605 C 326.878 649.958, 327.452 651.137, 327.118 653.250 C 327.053 653.662, 327.498 654, 328.107 654 C 328.716 654, 328.955 654.675, 328.638 655.500 C 328.322 656.325, 328.525 657, 329.090 657 C 329.656 657, 329.857 657.422, 329.538 657.939 C 329.219 658.455, 329.651 659.265, 330.498 659.739 C 331.345 660.213, 332.230 661.598, 332.465 662.818 C 332.700 664.037, 333.591 665.734, 334.446 666.589 C 335.301 667.444, 336 668.786, 336 669.571 C 336 670.357, 336.450 671, 337 671 C 337.550 671, 337.929 671.337, 337.841 671.750 C 337.561 673.074, 339.306 676.474, 340.696 677.311 C 341.436 677.758, 341.781 678.545, 341.462 679.061 C 341.143 679.578, 341.434 680, 342.108 680 C 342.782 680, 343.057 680.276, 342.720 680.613 C 342.383 680.951, 343.883 683.579, 346.053 686.454 C 348.224 689.329, 350 692.140, 350 692.701 C 350 693.261, 351.098 694.544, 352.440 695.552 C 353.782 696.560, 354.675 697.717, 354.423 698.124 C 354.172 698.531, 354.871 699.497, 355.977 700.271 C 357.083 701.046, 357.811 701.864, 357.596 702.090 C 357.382 702.315, 360.084 705.274, 363.603 708.665 C 367.121 712.056, 370 714.646, 370 714.422 C 370 714.197, 371.132 714.997, 372.515 716.200 C 373.899 717.403, 375.747 718.492, 376.624 718.621 C 377.500 718.750, 379.260 719.835, 380.534 721.032 C 381.809 722.230, 383.308 722.928, 383.866 722.583 C 384.424 722.238, 385.456 722.573, 386.161 723.327 C 386.865 724.081, 388.242 724.488, 389.220 724.232 C 390.199 723.976, 391 724.264, 391 724.872 C 391 725.480, 392.012 725.995, 393.250 726.016 C 394.488 726.037, 398.425 726.249, 402 726.488 C 405.575 726.727, 409.175 726.657, 410 726.333 C 410.825 726.008, 412.400 725.647, 413.500 725.529 C 419.557 724.881, 424.541 723.732, 424.835 722.916 C 425.020 722.405, 425.536 722.213, 425.981 722.488 C 426.427 722.764, 428.076 722.320, 429.646 721.501 C 431.216 720.682, 433.457 720.010, 434.628 720.006 C 435.798 720.003, 437.311 719.330, 437.991 718.511 C 438.671 717.692, 439.626 717.269, 440.113 717.570 C 440.601 717.871, 441 717.615, 441 717 C 441 716.385, 441.450 716.160, 442 716.500 C 442.550 716.840, 443 716.615, 443 716 C 443 715.385, 443.412 715.136, 443.915 715.447 C 444.418 715.758, 444.980 715.672, 445.165 715.256 C 445.507 714.484, 449.446 712.202, 458.718 707.406 C 461.588 705.921, 463.741 704.390, 463.502 704.004 C 463.264 703.618, 464.264 702.671, 465.726 701.901 C 467.188 701.130, 469.725 699.284, 471.364 697.797 C 473.002 696.310, 474.785 695.367, 475.326 695.701 C 475.867 696.036, 476.035 695.866, 475.701 695.325 C 475.366 694.783, 477.097 693.074, 479.546 691.525 C 481.996 689.977, 484 688.086, 484 687.324 C 484 686.561, 484.675 685.678, 485.500 685.362 C 486.325 685.045, 487 684.323, 487 683.758 C 487 683.192, 488.125 681.687, 489.500 680.412 C 493.285 676.905, 492.731 674.505, 487.539 671.912 C 485.085 670.687, 483.311 669.305, 483.598 668.842 C 483.884 668.379, 483.416 668, 482.559 668 C 481.702 668, 481 667.550, 481 667 C 481 666.450, 480.351 666, 479.557 666 C 478.763 666, 477.413 665, 476.557 663.777 C 475.701 662.555, 475 661.907, 475 662.336 C 475 662.766, 472.784 660.954, 470.076 658.309 C 463.911 652.287, 461.229 649.923, 458.296 647.925 C 457.024 647.058, 456.325 646.008, 456.742 645.591 C 457.159 645.174, 456.974 644.983, 456.331 645.167 C 455.034 645.536, 447.970 638.364, 448.806 637.527 C 449.096 637.237, 448.583 637, 447.667 637 C 446.750 637, 446.113 636.586, 446.250 636.081 C 446.388 635.576, 444.825 633.614, 442.777 631.721 C 440.729 629.828, 439.379 627.919, 439.777 627.479 C 440.175 627.039, 439.965 626.986, 439.312 627.360 C 438.629 627.752, 437.355 626.931, 436.312 625.425 C 435.315 623.987, 433.712 621.952, 432.750 620.905 C 431.787 619.857, 431.241 619, 431.534 619 C 431.828 619, 430.816 617.643, 429.284 615.983 C 423.280 609.479, 422 607.894, 422 606.965 C 422 606.434, 421.539 606, 420.975 606 C 420.412 606, 419.512 604.848, 418.977 603.440 C 418.442 602.032, 417.553 601.158, 417.002 601.499 C 416.451 601.839, 416 601.416, 416 600.559 C 416 599.702, 415.523 599, 414.941 599 C 414.359 599, 414.130 598.599, 414.432 598.109 C 414.735 597.620, 413.823 596.459, 412.405 595.529 C 410.987 594.600, 410.088 593.579, 410.407 593.260 C 410.726 592.941, 410.090 592.051, 408.994 591.283 C 407.897 590.515, 407 589.285, 407 588.550 C 407 587.815, 406.296 586.944, 405.437 586.614 C 404.577 586.284, 404.122 585.612, 404.425 585.121 C 404.729 584.629, 403.354 582.488, 401.370 580.364 C 397.362 576.072, 391 566.676, 391 565.048 C 391 564.472, 390.550 564, 390 564 C 389.450 564, 389 563.410, 389 562.689 C 389 561.967, 387.988 560.290, 386.750 558.962 C 385.512 557.634, 384.500 556.235, 384.500 555.854 C 384.500 555.472, 383.487 553.996, 382.250 552.573 C 381.012 551.149, 380 549.287, 380 548.433 C 380 547.580, 379.550 547.160, 379 547.500 C 378.450 547.840, 378 547.240, 378 546.166 C 378 545.092, 377.325 543.955, 376.500 543.638 C 375.675 543.322, 375 542.122, 375 540.972 C 375 539.823, 374.550 539.160, 374 539.500 C 373.136 540.034, 372.613 538.879, 372.827 536.913 C 372.862 536.591, 371.566 534.875, 369.946 533.102 C 368.326 531.328, 366.944 529.454, 366.875 528.938 C 366.806 528.422, 366.694 527.609, 366.625 527.131 C 366.556 526.653, 365.375 524.783, 364 522.975 C 362.625 521.167, 361.612 519.308, 361.750 518.844 C 361.887 518.380, 361.523 518, 360.941 518 C 360.359 518, 360.131 517.597, 360.435 517.105 C 360.740 516.612, 360.316 515.952, 359.494 515.636 C 358.672 515.321, 358 514.443, 358 513.685 C 358 511.812, 355.039 506, 354.085 506 C 353.662 506, 352.770 504.176, 352.102 501.947 C 351.434 499.718, 350.241 497.646, 349.450 497.342 C 348.659 497.039, 348.260 496.388, 348.565 495.895 C 348.869 495.403, 348.641 495, 348.059 495 C 347.477 495, 347.089 494.663, 347.198 494.250 C 347.570 492.843, 345.868 489, 344.874 489 C 344.328 489, 344.160 488.550, 344.500 488 C 344.840 487.450, 344.615 487, 344 487 C 343.385 487, 343.150 486.566, 343.477 486.036 C 343.805 485.507, 343.157 484.157, 342.036 483.036 C 340.916 481.916, 340.338 480.993, 340.750 480.985 C 341.163 480.976, 341.049 480.639, 340.497 480.235 C 339.514 479.515, 328 456.706, 328 455.480 C 328 455.137, 327.325 454.182, 326.500 453.357 C 325.675 452.532, 325 450.764, 325 449.429 C 325 448.093, 324.550 447, 324 447 C 323.450 447, 323 446.137, 323 445.083 C 323 444.029, 322.546 443.015, 321.990 442.830 C 321.435 442.645, 320.770 441.403, 320.514 440.070 C 320.257 438.737, 319.586 437.186, 319.023 436.623 C 318.461 436.061, 318 434.790, 318 433.800 C 318 432.810, 317.523 432, 316.941 432 C 316.359 432, 316.160 431.550, 316.500 431 C 316.840 430.450, 316.641 430, 316.059 430 C 315.477 430, 315 429.100, 315 428 C 315 426.900, 314.523 426, 313.941 426 C 313.359 426, 313.160 425.550, 313.500 425 C 313.840 424.450, 313.641 424, 313.059 424 C 312.477 424, 312.096 423.663, 312.212 423.250 C 312.329 422.837, 311.863 421.488, 311.177 420.250 C 310.491 419.012, 310.182 418, 310.490 418 C 310.799 418, 310.272 416.538, 309.320 414.750 C 308.368 412.963, 307.681 411.163, 307.794 410.750 C 307.907 410.337, 307.523 410, 306.941 410 C 306.359 410, 306.141 409.581, 306.457 409.069 C 306.774 408.557, 306.568 407.851, 306 407.500 C 305.432 407.149, 305.226 406.443, 305.543 405.931 C 305.859 405.419, 305.593 405, 304.952 405 C 304.311 405, 304.045 404.325, 304.362 403.500 C 304.678 402.675, 304.475 402, 303.910 402 C 303.344 402, 303.160 401.550, 303.500 401 C 303.840 400.450, 303.641 400, 303.059 400 C 302.477 400, 302 399.190, 302 398.200 C 302 397.210, 301.438 395.804, 300.750 395.075 C 299.750 394.015, 299.751 393.658, 300.756 393.290 C 301.447 393.036, 301.768 392.434, 301.470 391.951 C 301.171 391.468, 301.806 390.194, 302.880 389.120 C 303.954 388.046, 304.581 386.915, 304.274 386.607 C 303.966 386.299, 304.453 385.763, 305.357 385.417 C 306.261 385.070, 307 384.259, 307 383.616 C 307 382.972, 308.350 380.968, 310 379.161 C 311.650 377.355, 313 375.679, 313 375.438 C 313 375.197, 313.900 374.100, 315 373 C 316.100 371.900, 317 370.298, 317 369.441 C 317 368.584, 317.418 368.140, 317.928 368.456 C 318.438 368.771, 319.144 368.123, 319.495 367.015 C 319.847 365.907, 320.554 365, 321.067 365 C 321.580 365, 322 364.357, 322 363.571 C 322 362.786, 322.785 361.358, 323.744 360.399 C 324.703 359.440, 325.940 357.901, 326.494 356.978 C 328.947 352.890, 335.270 345, 336.094 345 C 336.592 345, 337 344.566, 337 344.034 C 337 343.503, 338.237 341.773, 339.750 340.190 C 343.390 336.378, 346.441 332.735, 347.026 331.500 C 347.287 330.950, 347.837 330.612, 348.250 330.750 C 348.662 330.887, 348.891 330.662, 348.758 330.250 C 348.463 329.337, 351.204 325.322, 352.250 325.134 C 352.663 325.060, 352.962 324.713, 352.915 324.362 C 352.868 324.011, 353.229 323.448, 353.717 323.112 C 354.206 322.775, 355.870 320.817, 357.414 318.760 C 358.959 316.703, 360.634 315.274, 361.136 315.584 C 361.638 315.895, 361.926 315.747, 361.775 315.256 C 361.624 314.765, 363.250 312.706, 365.390 310.682 C 367.529 308.657, 368.911 307, 368.461 307 C 368.011 307, 370.581 304.188, 374.173 300.750 C 377.764 297.313, 380.991 293.684, 381.344 292.687 C 381.697 291.689, 382.388 291.122, 382.880 291.426 C 383.371 291.729, 384.387 291.222, 385.137 290.297 C 386.295 288.869, 386.289 288.743, 385.095 289.463 C 384.142 290.037, 383.920 289.938, 384.405 289.155 C 384.797 288.520, 385.766 288, 386.559 288 C 387.352 288, 388 287.548, 388 286.996 C 388 286.444, 391.375 282.606, 395.500 278.468 C 399.625 274.329, 403 271.165, 403 271.436 C 403 271.707, 404.050 270.932, 405.334 269.714 C 406.617 268.496, 407.630 267.050, 407.584 266.500 C 407.538 265.950, 408.063 265.613, 408.750 265.750 C 409.438 265.888, 410 265.325, 410 264.500 C 410 263.675, 410.563 263.112, 411.250 263.250 C 411.938 263.387, 412.387 262.937, 412.250 262.250 C 412.112 261.562, 412.393 261.112, 412.873 261.250 C 413.353 261.387, 415.266 259.900, 417.123 257.944 C 418.980 255.988, 420.950 254.301, 421.500 254.194 C 422.050 254.087, 422.520 253.438, 422.545 252.750 C 422.570 252.063, 423.133 251.613, 423.795 251.750 C 424.458 251.888, 424.888 251.663, 424.750 251.250 C 424.613 250.838, 424.761 250.500, 425.081 250.500 C 425.400 250.500, 427.607 248.363, 429.985 245.750 C 432.362 243.138, 434.832 241, 435.474 241 C 436.115 241, 437.896 239.425, 439.431 237.500 C 440.966 235.575, 442.746 234, 443.388 234 C 444.030 234, 445.667 232.749, 447.027 231.221 C 448.387 229.692, 451.075 227.364, 453 226.048 C 454.925 224.732, 457.400 222.699, 458.500 221.530 C 459.600 220.362, 460.085 220.102, 459.578 220.953 C 459.071 221.804, 460.440 220.700, 462.620 218.500 C 467.525 213.550, 470.719 211, 472.011 211 C 472.555 211, 473 210.594, 473 210.099 C 473 209.603, 474.676 208.208, 476.725 207 C 478.774 205.791, 481.055 203.939, 481.794 202.884 C 482.532 201.829, 483.556 201.226, 484.068 201.542 C 484.581 201.859, 485 201.641, 485 201.059 C 485 200.477, 485.627 200, 486.393 200 C 487.159 200, 488.040 199.339, 488.350 198.532 C 488.659 197.724, 490.514 196.394, 492.471 195.577 C 494.427 194.759, 496.295 193.395, 496.621 192.545 C 496.947 191.695, 497.793 191, 498.500 191 C 499.207 191, 500.045 190.325, 500.362 189.500 C 500.678 188.675, 501.690 188, 502.610 188 C 503.531 188, 505.574 186.650, 507.150 185 C 508.727 183.350, 510.703 182, 511.540 182 C 512.378 182, 513.322 181.325, 513.638 180.500 C 513.955 179.675, 514.865 179, 515.660 179 C 517.765 179, 524.122 174.455, 523.245 173.578 C 522.835 173.168, 522.950 172.924, 523.500 173.035 C 525.733 173.486, 527.078 172.935, 526.405 171.845 C 525.976 171.153, 526.129 170.962, 526.786 171.368 C 527.388 171.740, 529.429 170.684, 531.322 169.022 C 533.215 167.360, 535.267 166, 535.882 166 C 536.497 166, 537 165.523, 537 164.941 C 537 164.359, 537.450 164.160, 538 164.500 C 538.550 164.840, 539 164.615, 539 164 C 539 163.385, 539.403 163.131, 539.895 163.435 C 540.388 163.740, 541.048 163.316, 541.364 162.494 C 541.679 161.672, 542.865 161, 544 161 C 545.135 161, 546.305 160.369, 546.601 159.599 C 547.064 158.390, 549.623 157.171, 551.683 157.177 C 552.033 157.178, 552.726 156.454, 553.222 155.569 C 553.717 154.683, 554.545 154.219, 555.061 154.538 C 555.578 154.857, 556 154.641, 556 154.059 C 556 153.477, 556.606 153, 557.347 153 C 558.088 153, 559.721 152.109, 560.976 151.021 C 562.231 149.932, 563.720 149.327, 564.284 149.675 C 564.849 150.024, 565.009 149.823, 564.640 149.227 C 564.016 148.218, 567.558 146.355, 569.250 146.802 C 569.663 146.911, 570 146.550, 570 146 C 570 145.450, 570.675 145, 571.500 145 C 572.325 145, 573 144.523, 573 143.941 C 573 143.359, 573.450 143.160, 574 143.500 C 574.550 143.840, 575 143.694, 575 143.176 C 575 142.272, 578.690 140.667, 580.250 140.892 C 580.663 140.951, 581 140.475, 581 139.833 C 581 139.192, 581.273 138.940, 581.606 139.273 C 581.940 139.607, 583.133 139.022, 584.258 137.974 C 585.383 136.927, 586.715 136.324, 587.218 136.635 C 587.721 136.946, 588.811 136.368, 589.641 135.350 C 590.470 134.333, 590.817 134.175, 590.413 135 C 590.008 135.825, 590.948 135.375, 592.500 134 C 594.052 132.625, 594.952 132.175, 594.500 133 C 594.048 133.825, 594.817 133.464, 596.209 132.198 C 597.601 130.931, 599.699 129.823, 600.870 129.735 C 602.042 129.647, 603 129.194, 603 128.728 C 603 128.263, 603.450 128.160, 604 128.500 C 604.550 128.840, 605 128.615, 605 128 C 605 127.385, 605.450 127.160, 606 127.500 C 606.550 127.840, 607 127.641, 607 127.059 C 607 126.477, 607.337 126.100, 607.750 126.222 C 608.163 126.345, 609.625 125.696, 611 124.781 C 612.375 123.865, 614.814 122.881, 616.419 122.594 C 618.024 122.306, 619.599 121.718, 619.919 121.286 C 620.239 120.854, 621.400 120.346, 622.500 120.158 C 623.600 119.971, 624.651 119.405, 624.835 118.902 C 625.020 118.399, 625.582 118.242, 626.085 118.553 C 626.588 118.864, 627 118.615, 627 118 C 627 117.385, 627.450 117.160, 628 117.500 C 628.550 117.840, 629 117.656, 629 117.090 C 629 116.525, 629.749 116.350, 630.664 116.701 C 631.880 117.168, 632.105 116.979, 631.500 116 C 630.902 115.033, 631.115 114.830, 632.263 115.271 C 633.138 115.606, 634.380 115.247, 635.023 114.473 C 635.666 113.698, 636.486 113.145, 636.846 113.244 C 637.206 113.344, 638.513 112.863, 639.750 112.177 C 640.987 111.491, 642 111.226, 642 111.587 C 642 111.949, 642.604 111.744, 643.342 111.131 C 644.080 110.519, 644.980 110.313, 645.342 110.675 C 645.704 111.037, 646 110.760, 646 110.060 C 646 109.338, 646.651 109.036, 647.500 109.362 C 648.325 109.678, 649 109.475, 649 108.910 C 649 108.344, 649.419 108.141, 649.931 108.457 C 650.443 108.774, 651.149 108.568, 651.500 108 C 651.851 107.432, 652.557 107.226, 653.069 107.543 C 653.581 107.859, 654 107.641, 654 107.059 C 654 106.477, 654.873 106, 655.941 106 C 657.009 106, 658.125 105.606, 658.423 105.125 C 658.720 104.644, 660.190 104.250, 661.690 104.250 C 663.190 104.250, 664.586 103.741, 664.794 103.119 C 665.001 102.497, 665.602 102.254, 666.129 102.580 C 666.656 102.906, 667.666 102.692, 668.372 102.106 C 669.079 101.520, 670.522 100.867, 671.578 100.655 C 679.400 99.090, 682.445 95.860, 681.321 90.324 C 681.006 88.771, 680.671 86.817, 680.577 85.982 C 680.482 85.148, 680.044 83.880, 679.603 83.166 C 679.161 82.451, 679.027 81.640, 679.304 81.363 C 679.581 81.085, 679.199 79.685, 678.455 78.251 C 677.711 76.817, 677.331 75.274, 677.610 74.822 C 677.890 74.370, 677.656 74, 677.090 74 C 676.525 74, 676.300 73.383, 676.589 72.629 C 676.878 71.875, 676.490 70.633, 675.727 69.870 C 674.964 69.107, 674.546 67.861, 674.799 67.102 C 675.076 66.273, 674.813 65.998, 674.141 66.413 C 673.442 66.845, 673.235 66.551, 673.589 65.629 C 673.900 64.818, 673.257 63.257, 672.161 62.161 C 671.064 61.064, 670.429 59.904, 670.750 59.583 C 671.071 59.262, 670.782 59, 670.108 59 C 669.434 59, 669.124 58.608, 669.420 58.129 C 669.895 57.361, 669.113 56.148, 665.019 51.292 C 664.458 50.628, 664 49.499, 664 48.783 C 664 48.067, 663.083 46.908, 661.961 46.208 C 660.840 45.508, 660.191 44.499, 660.520 43.967 C 660.849 43.435, 660.641 43, 660.059 43 C 659.477 43, 659 42.298, 659 41.441 C 659 40.584, 658.550 40.160, 658 40.500 C 657.450 40.840, 657 40.416, 657 39.559 C 657 38.702, 656.550 38, 656 38 C 655.450 38, 655 37.250, 655 36.333 C 655 35.417, 654.744 34.922, 654.432 35.235 C 654.119 35.547, 651.096 32.810, 647.713 29.152 C 639.340 20.097, 639.179 19.937, 638.286 19.864 C 637.854 19.829, 637.613 19.395, 637.750 18.900 C 637.888 18.405, 637.321 18, 636.491 18 C 635.661 18, 633.569 16.650, 631.843 15 C 630.116 13.350, 628.117 12, 627.401 12 C 626.685 12, 625.740 11.438, 625.300 10.750 C 624.084 8.850, 618.129 5.802, 616.998 6.501 C 616.449 6.840, 616 6.593, 616 5.952 C 616 5.311, 615.325 5.045, 614.500 5.362 C 613.675 5.678, 613 5.598, 613 5.183 C 613 4.216, 611.289 3.981, 601.483 3.597 C 597.073 3.425, 592.419 3.671, 591.141 4.144 M 757 172.944 C 757 174.002, 753.441 178, 752.500 178 C 752.225 178, 752.112 178.145, 752.250 178.321 C 752.388 178.498, 751.825 179.351, 751 180.217 C 750.175 181.083, 748.375 183.241, 747 185.014 C 745.625 186.787, 743.515 189.262, 742.311 190.513 C 741.106 191.764, 740.323 192.990, 740.571 193.237 C 740.818 193.484, 739.912 194.882, 738.558 196.343 C 737.203 197.804, 736.349 199, 736.659 199 C 736.968 199, 736.291 199.787, 735.153 200.750 C 734.016 201.713, 732.953 203.175, 732.792 204 C 732.632 204.825, 731.712 206.088, 730.750 206.807 C 729.788 207.525, 729 208.966, 729 210.007 C 729 211.048, 728.428 212.260, 727.729 212.700 C 727.030 213.140, 725.908 214.625, 725.236 216 C 723.589 219.370, 721.852 221.955, 719.750 224.162 C 718.788 225.173, 718 226.450, 718 227 C 718 229.071, 717.821 229.540, 716.458 231.047 C 714.614 233.084, 709.887 242, 710.651 242 C 710.977 242, 710.647 242.720, 709.916 243.601 C 709.186 244.481, 708.485 245.899, 708.360 246.751 C 708.235 247.603, 707.766 248.570, 707.316 248.900 C 706.867 249.230, 706.354 250.175, 706.175 251 C 705.996 251.825, 705.434 252.650, 704.925 252.833 C 704.416 253.017, 704 253.881, 704 254.755 C 704 255.628, 703.353 257.057, 702.563 257.930 C 701.773 258.803, 700.895 260.797, 700.611 262.362 C 700.327 263.926, 699.399 266.269, 698.548 267.568 C 697.696 268.867, 697 270.845, 697 271.965 C 697 273.084, 696.523 274, 695.941 274 C 695.359 274, 695.119 274.383, 695.409 274.852 C 695.698 275.321, 695.079 277.384, 694.032 279.438 C 692.985 281.491, 692.355 283.762, 692.632 284.484 C 692.910 285.207, 692.648 286.099, 692.052 286.468 C 691.455 286.837, 691.207 287.526, 691.500 288 C 691.793 288.474, 691.575 289.144, 691.016 289.490 C 690.457 289.835, 690 291.216, 690 292.559 C 690 293.902, 689.523 295, 688.941 295 C 688.359 295, 688.172 295.470, 688.527 296.044 C 688.882 296.618, 688.628 297.743, 687.964 298.544 C 687.299 299.345, 687.090 300, 687.500 300 C 687.910 300, 687.685 300.675, 687 301.500 C 686.315 302.325, 686.148 303.007, 686.628 303.015 C 687.107 303.024, 686.881 303.423, 686.125 303.902 C 685.369 304.381, 684.750 305.949, 684.750 307.386 C 684.750 308.824, 684.454 310, 684.093 310 C 683.732 310, 683.336 311.212, 683.213 312.694 C 683.091 314.176, 682.485 315.700, 681.867 316.082 C 681.249 316.464, 681.029 317.238, 681.378 317.803 C 681.727 318.367, 681.540 318.987, 680.962 319.179 C 680.384 319.372, 679.835 320.535, 679.743 321.765 C 679.650 322.994, 679.194 324, 678.728 324 C 678.263 324, 678.154 324.441, 678.487 324.979 C 678.820 325.518, 678.527 326.980, 677.836 328.229 C 677.146 329.478, 676.695 331.063, 676.834 331.750 C 676.974 332.438, 676.653 333, 676.121 333 C 675.087 333, 672.986 338.539, 672.730 341.940 C 672.644 343.073, 672.194 344, 671.728 344 C 671.263 344, 671.160 344.450, 671.500 345 C 671.840 345.550, 671.656 346, 671.090 346 C 670.525 346, 670.322 346.675, 670.638 347.500 C 670.955 348.325, 670.730 349, 670.138 349 C 669.547 349, 669.322 349.675, 669.638 350.500 C 669.955 351.325, 669.689 352, 669.048 352 C 668.407 352, 668.141 352.420, 668.458 352.932 C 668.775 353.445, 667.922 356.379, 666.563 359.453 C 665.204 362.526, 664.080 365.261, 664.066 365.531 C 664.052 365.800, 663.338 367.379, 662.479 369.040 C 661.621 370.700, 661.164 372.457, 661.465 372.944 C 661.766 373.431, 661.601 373.980, 661.098 374.165 C 660.595 374.349, 660.029 375.400, 659.842 376.500 C 659.654 377.600, 659.106 378.786, 658.625 379.136 C 658.144 379.486, 657.750 380.949, 657.750 382.386 C 657.750 383.824, 657.330 385, 656.816 385 C 656.302 385, 656.160 385.450, 656.500 386 C 656.840 386.550, 656.593 387, 655.952 387 C 655.311 387, 655.045 387.675, 655.362 388.500 C 655.678 389.325, 655.426 390, 654.802 390 C 654.178 390, 653.949 390.282, 654.293 390.627 C 654.638 390.972, 654.263 392.524, 653.460 394.077 C 652.657 395.630, 652 397.786, 652 398.867 C 652 399.948, 651.502 400.999, 650.894 401.202 C 650.285 401.405, 649.609 403.104, 649.391 404.978 C 649.173 406.852, 648.658 408.636, 648.247 408.943 C 647.836 409.249, 647.347 410.400, 647.160 411.500 C 646.973 412.600, 646.184 414.212, 645.408 415.081 C 644.631 415.951, 644.275 416.942, 644.617 417.284 C 644.959 417.625, 644.510 418.633, 643.619 419.524 C 642.729 420.414, 642 422.209, 642 423.512 C 642 424.816, 641.601 426.129, 641.113 426.430 C 640.626 426.731, 639.930 428.558, 639.568 430.489 C 639.206 432.420, 638.480 434, 637.955 434 C 637.430 434, 637.074 434.337, 637.164 434.750 C 637.450 436.059, 635.734 441.422, 634.338 443.580 C 633.598 444.724, 633.295 445.961, 633.663 446.330 C 634.032 446.698, 633.760 447, 633.060 447 C 632.359 447, 632.032 447.642, 632.334 448.427 C 632.635 449.212, 632.238 450.388, 631.452 451.040 C 630.665 451.693, 630.271 452.629, 630.575 453.121 C 630.879 453.613, 630.424 454.719, 629.564 455.579 C 628.193 456.950, 627.781 458.361, 628.085 460.638 C 628.132 460.989, 627.773 461.552, 627.286 461.888 C 626.003 462.776, 622.033 473.699, 622.737 474.404 C 623.065 474.732, 622.760 475, 622.060 475 C 621.338 475, 621.036 475.651, 621.362 476.500 C 621.678 477.325, 621.475 478, 620.910 478 C 620.344 478, 620.160 478.450, 620.500 479 C 620.840 479.550, 620.593 480, 619.952 480 C 619.311 480, 619.045 480.675, 619.362 481.500 C 619.678 482.325, 619.570 483, 619.120 483 C 618.024 483, 614.911 491.047, 615.585 492.138 C 615.878 492.612, 615.704 493, 615.198 493 C 614.005 493, 609.822 503.903, 610.557 505.093 C 610.866 505.592, 610.615 506, 610 506 C 609.385 506, 609.136 506.412, 609.447 506.915 C 609.758 507.418, 609.540 507.987, 608.962 508.179 C 608.384 508.372, 607.835 509.535, 607.743 510.765 C 607.650 511.994, 607.172 513, 606.680 513 C 606.188 513, 606.045 513.675, 606.362 514.500 C 606.678 515.325, 606.475 516, 605.910 516 C 605.344 516, 605.160 516.450, 605.500 517 C 605.840 517.550, 605.615 518, 605 518 C 604.385 518, 604.162 518.453, 604.505 519.008 C 604.847 519.562, 604.398 520.745, 603.506 521.637 C 602.615 522.528, 602.122 523.875, 602.411 524.629 C 602.700 525.383, 602.510 526, 601.988 526 C 601.465 526, 600.742 527.237, 600.381 528.750 C 600.020 530.263, 599.224 532.149, 598.612 532.942 C 597.722 534.096, 597.800 534.203, 599 533.481 C 600.265 532.719, 600.249 532.964, 598.904 535.039 C 598.025 536.392, 596.502 539.975, 595.519 543 C 594.535 546.025, 592.381 551.425, 590.731 555 C 589.081 558.575, 587.610 562.175, 587.461 563 C 586.873 566.260, 582.641 576.543, 581.603 577.235 C 580.996 577.639, 580.889 577.976, 581.365 577.985 C 581.841 577.993, 581.485 579.138, 580.573 580.528 C 579.662 581.919, 579.187 583.494, 579.517 584.028 C 579.848 584.563, 579.615 585, 579 585 C 578.385 585, 578.160 585.450, 578.500 586 C 578.840 586.550, 578.716 587, 578.226 587 C 577.735 587, 577.258 587.675, 577.167 588.500 C 577.075 589.325, 576.925 590.675, 576.833 591.500 C 576.742 592.325, 576.297 593, 575.845 593 C 575.393 593, 574.734 594.810, 574.380 597.022 C 574.027 599.234, 573.346 601.286, 572.869 601.581 C 572.391 601.876, 572 602.991, 572 604.059 C 572 605.127, 571.564 606, 571.031 606 C 570.499 606, 570.322 606.675, 570.638 607.500 C 570.955 608.326, 570.668 609, 570 609 C 569.332 609, 569.040 609.662, 569.351 610.471 C 569.661 611.280, 569.259 612.598, 568.458 613.400 C 567.656 614.201, 567 615.763, 567 616.870 C 567 617.976, 566.543 619.165, 565.984 619.510 C 565.425 619.856, 565.257 620.607, 565.612 621.181 C 565.966 621.754, 565.676 622.582, 564.968 623.020 C 564.259 623.458, 563.611 624.645, 563.528 625.658 C 563.445 626.671, 562.836 628.496, 562.173 629.713 C 561.511 630.930, 560.810 633.180, 560.614 634.713 C 560.419 636.246, 559.787 638.625, 559.211 640 C 557.864 643.212, 557.223 645.345, 557.377 646.096 C 557.445 646.424, 556.882 647.437, 556.128 648.346 C 555.373 649.256, 555.047 650, 555.403 650 C 555.760 650, 555.427 651.237, 554.663 652.750 C 553.899 654.263, 553.475 656.063, 553.721 656.750 C 553.966 657.438, 553.653 658, 553.024 658 C 552.396 658, 552.172 658.470, 552.527 659.044 C 552.882 659.618, 552.661 660.704, 552.036 661.457 C 551.410 662.210, 550.670 664.089, 550.390 665.632 C 550.110 667.175, 549.403 669.014, 548.818 669.719 C 548.234 670.424, 548.029 671, 548.363 671 C 548.697 671, 548.128 673.138, 547.099 675.750 C 546.069 678.362, 545.175 680.837, 545.113 681.250 C 544.554 684.955, 544.464 685.416, 543.642 688.750 C 543.202 690.538, 542.352 692, 541.754 692 C 541.156 692, 540.963 692.296, 541.325 692.658 C 541.687 693.020, 541.583 693.807, 541.095 694.408 C 540.607 695.009, 539.984 697.196, 539.711 699.268 C 539.438 701.340, 538.721 703.632, 538.116 704.360 C 537.512 705.088, 537.338 706.005, 537.730 706.396 C 538.122 706.788, 537.881 707.456, 537.194 707.880 C 536.508 708.304, 535.846 710.079, 535.723 711.823 C 535.601 713.568, 535.261 714.997, 534.968 714.998 C 534.676 714.999, 534.338 716.192, 534.217 717.649 C 534.096 719.106, 533.510 720.886, 532.913 721.605 C 532.316 722.324, 532.112 723.373, 532.460 723.936 C 532.808 724.498, 532.518 725.980, 531.815 727.229 C 531.113 728.478, 530.449 730.175, 530.340 731 C 530.014 733.472, 529.240 736.338, 528.114 739.250 C 527.528 740.763, 527.318 742, 527.647 742 C 527.976 742, 527.744 742.604, 527.131 743.342 C 526.519 744.080, 526.251 744.918, 526.537 745.203 C 526.822 745.489, 526.519 747.023, 525.862 748.611 C 525.205 750.200, 524.610 751.725, 524.540 752 C 523.061 757.791, 521.809 763.097, 521.625 764.350 C 521.496 765.226, 521.109 766.224, 520.765 766.569 C 520.420 766.914, 520.364 767.786, 520.641 768.508 C 520.918 769.229, 520.398 771.263, 519.486 773.027 C 518.574 774.790, 518.049 777.081, 518.320 778.117 C 518.591 779.153, 518.445 780, 517.995 780 C 517.545 780, 517.304 780.788, 517.459 781.750 C 517.614 782.712, 517.474 783.950, 517.149 784.500 C 516.459 785.665, 516.015 787.598, 515.714 790.749 C 515.597 791.986, 515.188 792.999, 514.807 792.999 C 514.426 793, 514.303 793.979, 514.534 795.176 C 514.764 796.373, 514.449 797.959, 513.834 798.700 C 513.219 799.442, 512.975 800.309, 513.294 800.627 C 513.612 800.945, 513.433 802.360, 512.897 803.771 C 511.781 806.707, 510.895 811.256, 510.661 815.250 C 510.572 816.763, 510.130 818, 509.678 818 C 509.227 818, 508.939 819.013, 509.039 820.250 C 509.139 821.487, 509.137 822.725, 509.035 823 C 508.932 823.275, 508.663 826.269, 508.436 829.653 C 508.210 833.037, 507.557 837.034, 506.987 838.535 C 506.416 840.036, 506.216 842.105, 506.542 843.132 C 506.868 844.159, 506.722 845, 506.218 845 C 505.334 845, 505.210 847.588, 505.210 866 C 505.210 876.835, 505.648 895.347, 505.920 896 C 506.128 896.501, 506.753 903.640, 507.124 909.750 C 507.233 911.538, 507.670 913, 508.095 913 C 508.520 913, 508.664 914.125, 508.414 915.500 C 508.160 916.902, 508.435 918, 509.039 918 C 509.633 918, 509.840 918.450, 509.500 919 C 509.160 919.550, 509.233 920.563, 509.663 921.250 C 510.750 922.990, 511.069 924.666, 511.534 931.077 C 511.757 934.144, 512.625 937.969, 513.463 939.577 C 514.302 941.184, 514.990 943.062, 514.994 943.749 C 514.997 944.436, 516.880 946.911, 519.177 949.249 C 521.474 951.587, 523.022 952.937, 522.617 952.248 C 521.359 950.112, 528.693 954.936, 532.878 958.997 C 535.063 961.118, 537.348 963.782, 537.955 964.917 C 538.563 966.052, 539.609 966.872, 540.280 966.740 C 540.951 966.608, 541.392 967.049, 541.260 967.720 C 541.128 968.391, 541.915 969.420, 543.010 970.005 C 544.104 970.591, 545.006 971.617, 545.014 972.285 C 545.040 974.488, 552.434 981.658, 555.899 982.840 C 560.568 984.433, 561.234 984.312, 560.500 982 C 560.151 980.900, 560.295 980, 560.821 980 C 561.782 980, 562.810 975.875, 563.671 968.558 C 563.926 966.390, 564.539 963.862, 565.032 962.940 C 565.526 962.018, 565.645 960.979, 565.298 960.631 C 564.951 960.284, 565.244 960, 565.950 960 C 566.741 960, 567.033 959.233, 566.710 958 C 566.423 956.900, 566.550 956, 566.994 956 C 567.437 956, 567.804 954.538, 567.809 952.750 C 567.814 950.962, 568.559 947.475, 569.466 945 C 572.252 937.392, 572.845 935.159, 573.525 929.735 C 573.885 926.856, 574.592 924.349, 575.096 924.165 C 575.600 923.980, 575.758 923.418, 575.447 922.915 C 575.136 922.412, 575.233 921.438, 575.663 920.750 C 576.092 920.063, 576.569 918.938, 576.722 918.250 C 576.875 917.563, 577.125 916.438, 577.278 915.750 C 577.431 915.063, 577.823 914.050, 578.149 913.500 C 578.474 912.950, 578.614 911.712, 578.459 910.750 C 578.304 909.787, 578.561 909, 579.031 909 C 579.501 909, 579.712 908.100, 579.500 907 C 579.288 905.900, 579.569 905, 580.125 905 C 580.680 905, 580.861 904.138, 580.527 903.084 C 580.192 902.030, 580.367 900.891, 580.916 900.552 C 581.464 900.213, 581.677 899.321, 581.388 898.569 C 581.100 897.817, 581.325 896.917, 581.888 896.569 C 582.452 896.221, 582.659 895.275, 582.349 894.468 C 582.040 893.661, 582.209 893, 582.726 893 C 583.621 893, 583.966 891.657, 584.075 887.750 C 584.102 886.788, 584.520 886, 585.005 886 C 585.489 886, 585.712 885.100, 585.500 884 C 585.288 882.900, 585.513 882, 586 882 C 586.487 882, 586.712 881.100, 586.500 880 C 586.288 878.900, 586.511 878, 586.995 878 C 587.480 878, 587.861 877.212, 587.844 876.250 C 587.826 875.288, 588.126 873.375, 588.511 872 C 588.895 870.625, 589.258 868.712, 589.319 867.750 C 589.379 866.788, 589.707 866, 590.048 866 C 590.388 866, 590.717 865.438, 590.780 864.750 C 590.842 864.063, 591.155 862.150, 591.475 860.500 C 591.796 858.850, 592.120 856.938, 592.196 856.250 C 592.271 855.563, 592.708 855, 593.167 855 C 593.625 855, 594 853.238, 594 851.083 C 594 848.929, 594.485 847.005, 595.079 846.807 C 595.988 846.504, 596.692 843.370, 597.224 837.250 C 597.284 836.563, 597.661 836, 598.062 836 C 598.462 836, 599.055 834.087, 599.379 831.750 C 599.703 829.413, 600.051 826.938, 600.151 826.250 C 600.251 825.563, 600.756 825, 601.274 825 C 601.791 825, 601.976 824.380, 601.685 823.622 C 601.394 822.864, 601.544 821.851, 602.018 821.372 C 602.492 820.892, 603.109 819.375, 603.389 818 C 603.669 816.625, 604.188 814.375, 604.543 813 C 604.897 811.625, 605.174 809.712, 605.156 808.750 C 605.139 807.788, 605.471 807, 605.895 807 C 606.320 807, 606.706 806.438, 606.753 805.750 C 606.801 805.063, 607.088 803.600, 607.391 802.500 C 609.199 795.941, 610.110 792.161, 610.504 789.575 C 610.749 787.966, 611.298 786.391, 611.725 786.075 C 612.151 785.759, 612.595 784.187, 612.711 782.583 C 612.827 780.979, 613.277 779.404, 613.711 779.083 C 614.145 778.762, 614.595 777.187, 614.711 775.583 C 614.827 773.979, 615.317 772.404, 615.799 772.083 C 616.825 771.401, 620.134 758.981, 620.283 755.250 C 620.311 754.563, 620.735 754, 621.226 754 C 621.716 754, 621.828 753.530, 621.473 752.956 C 621.118 752.382, 621.372 751.257, 622.036 750.456 C 622.701 749.655, 622.953 749, 622.597 749 C 622.240 749, 622.644 747.655, 623.495 746.010 C 624.345 744.366, 625.031 742.791, 625.020 742.510 C 625.009 742.230, 625.052 741.663, 625.115 741.250 C 625.178 740.837, 625.150 739.712, 625.052 738.750 C 624.954 737.788, 625.379 737, 625.996 737 C 626.613 737, 626.840 736.550, 626.500 736 C 626.160 735.450, 626.239 734.437, 626.676 733.750 C 627.112 733.063, 627.513 732.275, 627.566 732 C 628.130 729.091, 629.473 725.249, 630.289 724.215 C 630.846 723.509, 631.264 721.596, 631.218 719.965 C 631.172 718.334, 631.497 717, 631.942 717 C 632.386 717, 632.750 715.781, 632.750 714.292 C 632.750 712.802, 633.256 711.415, 633.875 711.208 C 634.494 711.002, 635 709.596, 635 708.083 C 635 706.571, 635.299 705.034, 635.665 704.668 C 636.031 704.302, 636.461 702.771, 636.622 701.266 C 636.782 699.760, 637.386 698.371, 637.963 698.179 C 638.540 697.987, 638.727 697.367, 638.378 696.803 C 638.029 696.238, 638.250 695.463, 638.869 695.081 C 639.488 694.699, 640.196 693.061, 640.442 691.443 C 640.939 688.184, 641.764 684.500, 641.998 684.500 C 642.081 684.500, 642.340 683.470, 642.574 682.211 C 642.808 680.952, 643.900 678.157, 645 676 C 646.100 673.843, 647.126 671.273, 647.279 670.289 C 647.432 669.305, 647.909 667.938, 648.338 667.250 C 648.767 666.563, 648.840 665.550, 648.500 665 C 648.160 664.450, 648.407 664, 649.048 664 C 649.689 664, 649.955 663.325, 649.638 662.500 C 649.322 661.675, 649.574 661, 650.198 661 C 650.822 661, 651.072 660.738, 650.752 660.418 C 650.432 660.099, 650.789 658.356, 651.545 656.545 C 652.302 654.735, 652.639 652.972, 652.294 652.627 C 651.949 652.282, 652.218 652, 652.892 652 C 653.566 652, 653.851 651.568, 653.525 651.041 C 653.199 650.513, 653.397 649.163, 653.966 648.041 C 654.535 646.918, 655.450 645.106, 656 644.014 C 656.550 642.921, 657 640.896, 657 639.514 C 657 638.131, 657.477 637, 658.059 637 C 658.641 637, 658.852 636.570, 658.527 636.044 C 658.202 635.518, 658.692 633.381, 659.615 631.294 C 660.538 629.207, 661.405 626.993, 661.540 626.374 C 662.218 623.275, 663.360 620.442, 664.130 619.944 C 664.603 619.638, 665.091 618.176, 665.213 616.694 C 665.336 615.212, 665.788 614, 666.218 614 C 666.648 614, 666.929 613.663, 666.841 613.250 C 666.754 612.837, 666.928 611.825, 667.227 611 C 667.527 610.175, 668.291 607.587, 668.926 605.250 C 669.561 602.913, 670.560 601, 671.147 601 C 671.734 601, 671.960 600.339, 671.651 599.532 C 671.341 598.725, 671.518 597.798, 672.044 597.473 C 672.570 597.148, 673 596.009, 673 594.941 C 673 593.873, 673.445 593, 673.988 593 C 674.532 593, 675.264 591.200, 675.616 589 C 675.968 586.800, 676.552 585, 676.915 585 C 677.278 585, 677.648 584.028, 677.737 582.840 C 677.827 581.652, 678.472 580.326, 679.171 579.894 C 679.870 579.462, 680.129 578.796, 679.747 578.414 C 679.365 578.032, 679.780 576.320, 680.669 574.610 C 683.769 568.646, 684.161 567.761, 684.515 565.924 C 684.711 564.907, 685.539 562.595, 686.356 560.787 C 687.173 558.979, 688.132 556.487, 688.488 555.250 C 688.844 554.013, 689.603 553, 690.174 553 C 690.746 553, 690.955 552.325, 690.638 551.500 C 690.322 550.675, 690.525 550, 691.090 550 C 691.656 550, 691.840 549.550, 691.500 549 C 691.160 548.450, 691.385 548, 692 548 C 692.615 548, 692.859 547.581, 692.543 547.069 C 692.226 546.557, 692.425 545.856, 692.984 545.510 C 693.543 545.165, 694 544.009, 694 542.941 C 694 541.873, 694.450 541, 695 541 C 695.550 541, 696 539.848, 696 538.441 C 696 536.794, 696.403 536.131, 697.130 536.580 C 697.819 537.006, 698.069 536.737, 697.769 535.889 C 697.500 535.125, 698.332 532.587, 699.620 530.250 C 700.907 527.913, 701.719 526, 701.424 526 C 700.814 526, 704.143 519.771, 705.170 518.991 C 705.538 518.710, 705.988 517.812, 706.170 516.994 C 706.351 516.176, 707.175 514.910, 708 514.179 C 709.333 512.999, 709.333 512.924, 708 513.500 C 706.933 513.961, 706.986 513.748, 708.184 512.762 C 709.110 512, 710.171 510.167, 710.542 508.688 C 710.913 507.210, 711.563 506, 711.987 506 C 712.411 506, 713.339 504.596, 714.050 502.879 C 714.761 501.163, 716.278 498.847, 717.421 497.732 C 718.565 496.618, 718.825 496.071, 718 496.516 C 717.175 496.962, 717.737 496.150, 719.250 494.711 C 720.763 493.273, 722 491.399, 722 490.548 C 722 489.696, 722.525 489, 723.167 489 C 723.808 489, 724.070 488.737, 723.749 488.415 C 723.205 487.871, 724.677 485.692, 727.821 482.388 C 728.548 481.625, 728.817 481, 728.418 481 C 728.020 481, 728.663 480.160, 729.847 479.133 C 731.031 478.106, 732 476.811, 732 476.255 C 732 475.699, 733.013 474.493, 734.250 473.576 C 735.487 472.658, 735.825 472.240, 735 472.646 C 733.667 473.302, 733.667 473.172, 735 471.474 C 735.825 470.424, 737.625 468.501, 739 467.202 C 740.375 465.902, 740.825 465.177, 740 465.591 C 738.207 466.491, 741.585 462.208, 744.250 460.203 C 745.212 459.479, 746 458.365, 746 457.728 C 746 457.091, 746.879 455.655, 747.953 454.535 C 752.191 450.117, 753.976 448, 753.461 448 C 752.769 448, 754.699 445.613, 758.500 441.769 C 760.150 440.100, 760.825 439.086, 760 439.515 C 759.175 439.945, 759.880 438.992, 761.566 437.398 C 763.252 435.804, 765.651 432.813, 766.897 430.750 C 768.143 428.688, 769.603 427, 770.141 427 C 770.678 427, 770.882 426.618, 770.594 426.152 C 770.306 425.686, 771.629 424.061, 773.535 422.541 C 775.441 421.022, 777 419.316, 777 418.750 C 777 418.184, 777.788 417.145, 778.750 416.441 C 779.712 415.737, 780.500 414.761, 780.500 414.273 C 780.500 413.784, 782.975 410.574, 786 407.140 C 789.025 403.706, 791.391 400.480, 791.258 399.972 C 791.125 399.464, 792.362 398.053, 794.008 396.836 C 795.654 395.619, 797 394.134, 797 393.534 C 797 392.935, 797.788 391.734, 798.750 390.865 C 800.797 389.017, 803.356 385.925, 804.015 384.500 C 804.270 383.950, 805.946 382.075, 807.739 380.333 C 809.533 378.592, 811 376.885, 811 376.541 C 811 375.792, 812.843 373.480, 815.250 371.207 C 816.212 370.299, 817 368.954, 817 368.219 C 817 367.484, 817.399 367.129, 817.887 367.430 C 818.374 367.731, 819.387 367.222, 820.137 366.297 C 821.307 364.854, 821.288 364.724, 820 365.380 C 819.175 365.801, 819.668 365.100, 821.095 363.822 C 822.522 362.545, 823.982 360.684, 824.338 359.687 C 824.694 358.689, 825.450 358.160, 826.018 358.511 C 826.585 358.862, 826.926 358.677, 826.775 358.099 C 826.624 357.522, 830.438 353.267, 835.250 348.642 C 840.063 344.018, 844 340.476, 844 340.772 C 844 341.068, 844.889 340.505, 845.976 339.521 C 847.063 338.538, 847.731 337.374, 847.460 336.935 C 847.189 336.497, 847.494 335.813, 848.138 335.415 C 848.920 334.931, 849.039 335.127, 848.497 336.004 C 848.051 336.726, 850.509 334.563, 853.959 331.198 C 857.410 327.832, 860.518 325.132, 860.867 325.198 C 862.269 325.463, 864.952 323.732, 864.435 322.895 C 864.131 322.403, 864.335 322, 864.889 322 C 865.444 322, 867.093 320.891, 868.556 319.536 C 870.018 318.180, 871.504 317.159, 871.857 317.265 C 873.049 317.624, 878.896 313.641, 878.387 312.817 C 878.109 312.367, 878.377 312, 878.983 312 C 879.588 312, 881.050 311.100, 882.230 310 C 883.411 308.900, 885.192 308, 886.189 308 C 887.185 308, 888 307.605, 888 307.121 C 888 306.638, 889.350 305.683, 891 305 C 892.650 304.317, 894 303.362, 894 302.879 C 894 302.395, 894.337 302.079, 894.750 302.175 C 896.192 302.510, 900.933 299.700, 900.394 298.829 C 900.096 298.346, 900.222 298.051, 900.676 298.173 C 902.263 298.603, 905.820 296.910, 906.376 295.462 C 906.685 294.658, 907.819 294, 908.897 294 C 909.975 294, 911.564 293.293, 912.429 292.429 C 913.293 291.564, 914.014 291.227, 914.032 291.679 C 914.049 292.130, 914.673 291.697, 915.418 290.714 C 916.163 289.732, 917.803 288.731, 919.063 288.488 C 920.322 288.245, 921.717 287.474, 922.161 286.773 C 922.715 285.901, 922.974 286.190, 922.985 287.691 C 922.993 288.896, 922.519 290.179, 921.932 290.542 C 921.344 290.905, 921.127 291.889, 921.449 292.728 C 921.771 293.567, 921.597 294.781, 921.062 295.425 C 920.527 296.069, 919.976 298.294, 919.836 300.369 C 919.696 302.443, 919.254 304.343, 918.852 304.591 C 918.451 304.839, 918.294 305.933, 918.504 307.021 C 918.714 308.109, 918.574 309, 918.193 309.001 C 917.812 309.001, 917.391 310.885, 917.258 313.187 C 917.124 315.489, 916.496 317.693, 915.862 318.085 C 915.228 318.477, 914.979 319.504, 915.311 320.367 C 915.642 321.230, 915.459 322.217, 914.904 322.560 C 914.349 322.903, 914.082 323.705, 914.312 324.342 C 914.542 324.979, 914.318 326.299, 913.816 327.276 C 913.313 328.253, 912.692 330.690, 912.436 332.692 C 912.180 334.694, 911.576 336.819, 911.094 337.416 C 910.613 338.012, 909.949 340.473, 909.620 342.885 C 909.291 345.296, 908.454 347.953, 907.761 348.789 C 907.067 349.624, 906.600 350.459, 906.723 350.643 C 906.845 350.828, 906.768 351.546, 906.551 352.240 C 906.333 352.933, 905.875 355.188, 905.533 357.250 C 905.190 359.313, 904.432 361, 903.848 361 C 903.264 361, 903.045 361.675, 903.362 362.500 C 903.678 363.325, 903.598 364, 903.183 364 C 902.768 364, 902.377 364.788, 902.313 365.750 C 902.066 369.487, 900.824 373.491, 899.689 374.213 C 899.035 374.629, 898.893 374.976, 899.372 374.985 C 899.852 374.993, 899.792 375.563, 899.238 376.250 C 898.684 376.938, 897.903 379.075, 897.502 381 C 897.101 382.925, 895.836 386.525, 894.690 389 C 893.544 391.475, 892.711 393.885, 892.838 394.355 C 892.966 394.826, 892.631 395.740, 892.094 396.386 C 891.558 397.033, 890.877 398.895, 890.581 400.524 C 890.286 402.152, 889.584 403.639, 889.022 403.826 C 888.460 404.013, 888 404.753, 888 405.469 C 888 406.185, 887.348 408.028, 886.551 409.564 C 885.754 411.100, 885.331 412.726, 885.610 413.178 C 885.890 413.630, 885.622 414, 885.015 414 C 884.409 414, 884.023 414.563, 884.159 415.250 C 884.295 415.938, 883.631 417.958, 882.683 419.740 C 881.735 421.521, 880.963 423.321, 880.968 423.740 C 880.987 425.541, 879.788 428, 878.889 428 C 878.352 428, 878.023 428.563, 878.159 429.250 C 878.295 429.938, 877.631 431.958, 876.683 433.740 C 875.735 435.521, 875.035 437.096, 875.126 437.240 C 875.594 437.969, 873.737 442, 872.933 442 C 872.420 442, 872 442.900, 872 444 C 872 445.100, 871.523 446, 870.941 446 C 870.359 446, 870.160 446.450, 870.500 447 C 870.840 447.550, 870.641 448, 870.059 448 C 869.477 448, 869 448.873, 869 449.941 C 869 451.009, 868.543 452.165, 867.984 452.510 C 867.425 452.856, 867.190 453.499, 867.463 453.940 C 867.735 454.381, 867.095 455.737, 866.041 456.953 C 864.986 458.169, 863.834 460.477, 863.482 462.082 C 863.129 463.687, 862.400 465, 861.862 465 C 861.323 465, 861.160 465.450, 861.500 466 C 861.840 466.550, 861.566 467, 860.892 467 C 860.218 467, 859.958 467.291, 860.314 467.647 C 861.105 468.438, 855.065 480, 853.861 480 C 853.387 480, 853.097 480.337, 853.215 480.750 C 853.333 481.162, 852.280 483.300, 850.875 485.500 C 849.470 487.700, 848.022 490.706, 847.658 492.180 C 847.295 493.654, 846.382 495.475, 845.630 496.227 C 844.879 496.978, 843.947 498.591, 843.560 499.811 C 843.173 501.031, 842.438 501.771, 841.928 501.456 C 841.089 500.937, 840.575 502.309, 840.882 504.250 C 840.947 504.663, 840.523 505, 839.941 505 C 839.359 505, 839.162 505.453, 839.504 506.007 C 839.847 506.561, 839.426 507.283, 838.569 507.612 C 837.712 507.941, 837.260 508.612, 837.565 509.105 C 837.869 509.597, 837.685 510, 837.157 510 C 836.628 510, 835.705 511.408, 835.105 513.129 C 834.505 514.849, 832.861 517.326, 831.451 518.633 C 830.041 519.940, 829.164 521.457, 829.503 522.004 C 829.841 522.552, 829.618 523, 829.007 523 C 828.396 523, 827.438 524.314, 826.878 525.920 C 826.318 527.526, 825.188 529.098, 824.367 529.413 C 823.545 529.728, 823.108 530.366, 823.395 530.830 C 823.682 531.295, 822.604 533.211, 820.999 535.087 C 819.394 536.964, 818.063 539.047, 818.041 539.717 C 818.018 540.386, 816.316 542.617, 814.258 544.675 C 812.200 546.733, 811.188 548.064, 812.008 547.632 C 812.829 547.201, 812.515 547.720, 811.310 548.785 C 808.793 551.013, 799 563.593, 799 564.599 C 799 564.968, 797.987 566.292, 796.750 567.541 C 793.328 570.994, 792 572.805, 792 574.017 C 792 574.622, 791.550 574.840, 791 574.500 C 790.450 574.160, 789.994 574.246, 789.987 574.691 C 789.963 576.140, 785.648 581.242, 778 588.867 C 773.875 592.979, 771.175 595.955, 772 595.480 C 773.290 594.737, 773.309 594.851, 772.137 596.297 C 771.387 597.222, 770.363 597.724, 769.862 597.415 C 769.361 597.105, 769.067 597.222, 769.209 597.676 C 769.455 598.459, 764.412 604, 763.453 604 C 763.203 604, 761.251 605.800, 759.116 608 C 756.981 610.200, 754.731 612, 754.117 612 C 753.503 612, 753.113 612.337, 753.250 612.750 C 753.388 613.163, 753.065 613.725, 752.533 614 C 752.002 614.275, 750.134 615.932, 748.383 617.683 C 746.633 619.434, 744.930 620.597, 744.600 620.267 C 744.270 619.937, 744 620.192, 744 620.833 C 744 621.475, 743.408 622, 742.684 622 C 741.960 622, 739.986 623.462, 738.297 625.250 C 734.256 629.527, 733.277 630.262, 726.630 634.014 C 723.533 635.761, 721 637.598, 721 638.095 C 721 638.593, 720.073 639, 718.941 639 C 717.809 639, 717.160 639.450, 717.500 640 C 717.840 640.550, 717.266 641, 716.226 641 C 713.266 641, 713.957 644.030, 717.917 648.419 C 723.714 654.844, 726.195 656.997, 727.133 656.418 C 727.618 656.118, 728.284 656.577, 728.614 657.437 C 728.944 658.296, 730.011 659, 730.985 659 C 731.958 659, 733.332 659.695, 734.038 660.546 C 734.743 661.396, 735.923 661.860, 736.660 661.577 C 737.397 661.294, 738 661.424, 738 661.865 C 738 662.638, 738.689 662.828, 743 663.238 C 744.100 663.343, 745 663.670, 745 663.964 C 745 664.259, 746.462 664.553, 748.250 664.618 C 750.038 664.683, 754.320 664.967, 757.766 665.248 C 761.212 665.529, 764.267 665.377, 764.555 664.911 C 764.843 664.445, 766.523 664.039, 768.289 664.008 C 772.013 663.943, 777.387 663.373, 777.750 663.004 C 777.888 662.864, 778.450 662.638, 779 662.500 C 779.550 662.362, 780.337 662.140, 780.750 662.007 C 781.163 661.873, 781.856 661.823, 782.291 661.895 C 782.725 661.968, 784.004 661.533, 785.133 660.929 C 786.261 660.325, 788.572 659.655, 790.267 659.441 C 791.963 659.226, 793.671 658.532, 794.064 657.897 C 794.456 657.263, 795.277 657.053, 795.888 657.431 C 796.500 657.809, 797 657.566, 797 656.892 C 797 656.218, 797.282 655.949, 797.627 656.293 C 797.972 656.638, 799.659 656.172, 801.377 655.257 C 803.095 654.342, 805.063 653.705, 805.750 653.841 C 806.438 653.977, 807 653.648, 807 653.111 C 807 652.128, 810.854 650.433, 812.250 650.802 C 812.663 650.911, 813 650.523, 813 649.941 C 813 649.359, 813.450 649.160, 814 649.500 C 814.550 649.840, 815 649.615, 815 649 C 815 648.385, 815.412 648.136, 815.915 648.447 C 816.418 648.758, 816.980 648.672, 817.165 648.256 C 817.461 647.587, 824.709 643.739, 826 643.564 C 826.275 643.527, 827.901 642.498, 829.613 641.278 C 831.325 640.058, 833.012 639.346, 833.363 639.696 C 833.713 640.047, 834 639.782, 834 639.108 C 834 638.434, 834.422 638.143, 834.939 638.462 C 835.455 638.781, 836.242 638.448, 836.689 637.721 C 837.867 635.802, 844.511 631.320, 843.606 633.053 C 843.118 633.989, 843.320 633.934, 844.180 632.896 C 844.910 632.013, 846.518 630.970, 847.754 630.578 C 848.989 630.186, 850 629.530, 850 629.121 C 850 628.711, 851.414 627.331, 853.143 626.053 C 854.871 624.775, 855.963 624.353, 855.569 625.115 C 855.174 625.877, 855.560 625.626, 856.426 624.559 C 857.292 623.491, 858 622.999, 858 623.464 C 858 623.930, 859.027 623.116, 860.282 621.656 C 861.537 620.195, 863.112 619, 863.782 619 C 864.452 619, 865 618.475, 865 617.833 C 865 617.192, 865.264 616.930, 865.586 617.253 C 865.908 617.575, 867.522 616.413, 869.171 614.669 C 870.821 612.926, 871.833 612.175, 871.422 613 C 871.010 613.825, 871.850 613.263, 873.289 611.750 C 874.727 610.237, 876.403 609, 877.011 609 C 877.620 609, 877.840 608.550, 877.500 608 C 877.160 607.450, 877.292 607, 877.793 607 C 878.719 607, 883.172 603.339, 888.385 598.293 C 889.972 596.757, 891.772 595.650, 892.385 595.833 C 892.998 596.017, 893.219 595.886, 892.876 595.543 C 892.037 594.704, 897.114 589, 898.700 589 C 899.389 589, 900.741 587.763, 901.704 586.250 C 902.666 584.737, 904.927 582.118, 906.727 580.429 C 908.527 578.740, 910 576.827, 910 576.179 C 910 575.531, 910.374 575, 910.831 575 C 911.288 575, 912.256 573.890, 912.982 572.534 C 913.708 571.178, 914.630 570.272, 915.033 570.520 C 915.435 570.769, 916.482 569.516, 917.359 567.736 C 918.237 565.956, 918.965 564.925, 918.977 565.444 C 919.011 566.865, 924 559.810, 924 558.341 C 924 557.642, 924.913 556.582, 926.028 555.985 C 927.143 555.388, 927.792 554.472, 927.469 553.950 C 927.146 553.427, 927.359 553, 927.941 553 C 928.523 553, 929 552.298, 929 551.441 C 929 550.584, 929.450 550.160, 930 550.500 C 930.550 550.840, 931 550.416, 931 549.559 C 931 548.702, 931.862 547.138, 932.917 546.083 C 933.971 545.029, 934.571 543.904, 934.250 543.583 C 933.929 543.263, 934.132 543, 934.700 543 C 936.029 543, 941 535.520, 941 533.521 C 941 532.685, 941.450 532, 942 532 C 942.550 532, 943 531.373, 943 530.607 C 943 529.841, 943.704 528.944, 944.563 528.614 C 945.423 528.284, 945.863 527.588, 945.541 527.067 C 945.219 526.546, 945.829 525.305, 946.897 524.310 C 947.964 523.314, 949.148 521.263, 949.527 519.750 C 949.907 518.237, 950.645 517, 951.167 517 C 951.690 517, 951.857 516.578, 951.538 516.061 C 951.219 515.545, 951.530 514.758, 952.229 514.311 C 954.017 513.170, 957.078 507.412, 956.307 506.640 C 955.955 506.288, 956.120 506, 956.675 506 C 957.230 506, 958.207 504.253, 958.846 502.119 C 959.486 499.984, 960.682 497.679, 961.505 496.996 C 962.327 496.314, 963 494.937, 963 493.937 C 963 492.936, 963.438 491.847, 963.973 491.517 C 964.508 491.186, 965.425 489.135, 966.011 486.958 C 966.598 484.781, 967.558 483, 968.146 483 C 968.733 483, 968.955 482.325, 968.638 481.500 C 968.322 480.675, 968.525 480, 969.090 480 C 969.656 480, 969.864 479.588, 969.553 479.085 C 969.242 478.582, 969.450 478.017, 970.016 477.828 C 970.582 477.639, 971.287 476.148, 971.583 474.514 C 971.880 472.880, 972.432 471.308, 972.811 471.021 C 973.190 470.735, 973.545 469.938, 973.600 469.250 C 973.902 465.469, 974.069 464.925, 974.788 465.369 C 975.221 465.637, 975.672 464.696, 975.789 463.279 C 975.906 461.862, 976.507 460.094, 977.124 459.351 C 977.740 458.608, 977.910 458, 977.500 458 C 977.090 458, 977.315 457.325, 978 456.500 C 978.685 455.675, 978.953 455, 978.597 455 C 978.240 455, 978.647 453.650, 979.500 452 C 980.353 450.350, 980.760 449, 980.403 449 C 980.047 449, 980.256 448.396, 980.869 447.658 C 981.481 446.920, 981.687 446.020, 981.325 445.658 C 980.963 445.296, 981.267 445, 982 445 C 982.733 445, 983.074 444.741, 982.757 444.423 C 982.440 444.106, 983.024 441.940, 984.055 439.608 C 985.086 437.277, 986.176 433.414, 986.476 431.024 C 986.776 428.634, 987.491 426.113, 988.065 425.422 C 988.638 424.731, 989.196 422.554, 989.304 420.583 C 989.412 418.613, 989.866 417.001, 990.313 417 C 990.760 417, 991.006 416.212, 990.860 415.250 C 990.714 414.288, 990.980 412.150, 991.451 410.500 C 991.923 408.850, 992.207 406.488, 992.083 405.250 C 991.958 404.012, 992.388 403, 993.037 403 C 993.796 403, 993.993 402.109, 993.589 400.500 C 993.244 399.125, 993.339 398, 993.799 398 C 994.260 398, 994.715 396.650, 994.811 395 C 995.138 389.371, 995.273 388.500, 995.975 387.500 C 996.362 386.950, 996.586 385.150, 996.473 383.500 C 996.361 381.850, 996.533 380.050, 996.855 379.500 C 997.177 378.950, 997.518 377.150, 997.613 375.500 C 997.707 373.850, 997.893 372.500, 998.025 372.500 C 998.733 372.500, 999.260 360.718, 999.601 337.250 C 999.867 318.963, 999.657 311, 998.908 311 C 998.317 311, 998.033 310.438, 998.278 309.750 C 998.522 309.063, 997.868 306.797, 996.823 304.716 C 995.779 302.634, 995.236 300.427, 995.617 299.811 C 996.038 299.129, 995.857 298.970, 995.155 299.405 C 994.178 300.008, 993.478 298.672, 994.250 297.679 C 994.388 297.502, 993.708 296.566, 992.741 295.598 C 991.773 294.630, 991.218 293.456, 991.508 292.988 C 991.797 292.520, 991.026 291.431, 989.794 290.568 C 988.563 289.706, 987.949 289, 988.431 289 C 988.912 289, 988.308 288.134, 987.087 287.076 C 985.867 286.017, 984.898 284.892, 984.934 284.576 C 984.970 284.259, 984.100 283.100, 983 282 C 981.900 280.900, 981 280.325, 981 280.723 C 981 281.120, 980.299 280.445, 979.443 279.223 C 978.587 278, 977.211 277, 976.384 277 C 975.558 277, 975.140 276.582, 975.456 276.072 C 975.771 275.562, 975.010 274.825, 973.765 274.435 C 972.519 274.045, 970.224 272.660, 968.665 271.356 C 967.106 270.053, 965.419 269.241, 964.915 269.552 C 964.412 269.863, 964 269.615, 964 269 C 964 268.385, 963.550 268.160, 963 268.500 C 962.450 268.840, 962 268.641, 962 268.059 C 962 267.477, 961.100 267, 960 267 C 958.900 267, 958 266.564, 958 266.031 C 958 265.499, 957.325 265.322, 956.500 265.638 C 955.674 265.955, 955 265.668, 955 265 C 955 264.332, 954.326 264.045, 953.500 264.362 C 952.675 264.678, 952 264.471, 952 263.901 C 952 263.320, 951.121 263.144, 950 263.500 C 948.769 263.891, 948 263.680, 948 262.951 C 948 262.259, 947.168 261.984, 946 262.290 C 944.900 262.577, 944 262.435, 944 261.973 C 944 261.511, 942.829 261.345, 941.398 261.604 C 939.967 261.864, 938.280 261.690, 937.648 261.219 C 936.720 260.525, 914.500 260.321, 914.500 261.006 C 914.500 261.114, 912.925 261.350, 911 261.530 C 909.075 261.709, 906.150 262.561, 904.500 263.422 C 902.850 264.283, 900.588 264.990, 899.473 264.994 C 898.357 264.997, 896.557 265.622, 895.473 266.382 C 894.388 267.141, 893.050 267.888, 892.500 268.041 C 891.950 268.193, 890.712 268.524, 889.750 268.776 C 888.788 269.027, 888 269.657, 888 270.176 C 888 270.694, 887.586 270.862, 887.081 270.550 C 886.575 270.237, 885.552 270.548, 884.807 271.241 C 884.062 271.933, 882.788 272.649, 881.976 272.831 C 881.164 273.013, 880.135 273.810, 879.689 274.602 C 879.242 275.394, 878.455 275.781, 877.939 275.462 C 877.422 275.143, 877 275.359, 877 275.941 C 877 276.523, 876.325 277, 875.500 277 C 874.675 277, 874 277.401, 874 277.892 C 874 278.382, 872.950 279.047, 871.666 279.369 C 869.584 279.892, 865.426 282.765, 859.500 287.775 C 858.400 288.706, 857.213 289.474, 856.863 289.483 C 856.512 289.492, 855.240 290.625, 854.037 292 C 852.833 293.375, 852.139 293.825, 852.496 293 C 852.853 292.175, 852.100 292.661, 850.822 294.080 C 849.545 295.500, 846.377 298.153, 843.782 299.977 C 841.187 301.801, 839.301 303.677, 839.591 304.147 C 839.881 304.616, 839.449 305, 838.632 305 C 837.814 305, 836.325 306.043, 835.323 307.317 C 834.320 308.591, 833.050 309.829, 832.500 310.067 C 831.950 310.305, 831.612 310.837, 831.750 311.250 C 831.887 311.662, 831.662 311.904, 831.250 311.786 C 830.837 311.668, 824.962 317.068, 818.194 323.786 C 811.426 330.504, 806.134 336, 806.434 336 C 806.735 336, 806.210 336.900, 805.268 338 C 804.326 339.100, 802.966 340, 802.246 340 C 801.526 340, 800.639 340.778, 800.274 341.728 C 799.909 342.678, 798.461 344.533, 797.056 345.848 C 795.650 347.164, 794.625 348.675, 794.779 349.207 C 794.932 349.738, 794.144 350.411, 793.029 350.703 C 791.913 350.995, 791 351.684, 791 352.235 C 791 352.786, 789.538 354.514, 787.750 356.074 C 785.962 357.635, 784.480 359.494, 784.455 360.206 C 784.430 360.918, 783.867 361.387, 783.205 361.250 C 782.542 361.112, 782 361.415, 782 361.923 C 782 362.431, 780.650 364.196, 779 365.846 C 777.350 367.496, 776 369.154, 776 369.529 C 776 369.905, 774.927 371.056, 773.616 372.087 C 772.305 373.118, 769.784 376.221, 768.012 378.981 C 766.241 381.741, 764.362 384, 763.837 384 C 763.312 384, 763.109 384.368, 763.387 384.818 C 763.665 385.268, 763.017 386.267, 761.946 387.039 C 760.876 387.810, 760 389.031, 760 389.752 C 760 390.473, 759.325 391.322, 758.500 391.638 C 757.675 391.955, 757 392.793, 757 393.500 C 757 394.207, 756.321 395.047, 755.491 395.365 C 754.661 395.684, 754.039 396.294, 754.109 396.722 C 754.455 398.831, 753.883 400.046, 752.845 399.405 C 752.153 398.976, 751.962 399.129, 752.368 399.786 C 752.740 400.388, 752.050 401.808, 750.834 402.940 C 749.618 404.073, 749.045 405.007, 749.561 405.015 C 750.078 405.024, 749.837 405.450, 749.026 405.963 C 746.833 407.350, 746.006 405.218, 747.568 402.206 C 748.299 400.797, 748.669 399.274, 748.390 398.822 C 748.110 398.370, 748.385 398, 749 398 C 749.615 398, 749.849 397.565, 749.521 397.034 C 749.193 396.503, 749.858 394.238, 751 392 C 752.142 389.762, 752.831 387.535, 752.532 387.051 C 752.232 386.567, 752.414 386.020, 752.935 385.835 C 753.456 385.651, 754.097 384.302, 754.359 382.838 C 754.621 381.373, 755.339 379.236, 755.953 378.088 C 756.568 376.939, 756.774 376, 756.413 376 C 756.051 376, 756.256 375.396, 756.869 374.658 C 757.481 373.920, 757.687 373.020, 757.325 372.658 C 756.963 372.296, 757.218 372, 757.892 372 C 758.566 372, 758.840 371.550, 758.500 371 C 758.160 370.450, 758.359 370, 758.941 370 C 759.523 370, 760.003 369.212, 760.006 368.250 C 760.010 367.288, 760.642 365.293, 761.412 363.817 C 762.182 362.342, 763.108 359.786, 763.470 358.136 C 763.832 356.487, 764.770 354.606, 765.553 353.956 C 766.337 353.305, 766.749 352.403, 766.470 351.951 C 766.190 351.499, 766.863 349.525, 767.964 347.565 C 769.065 345.604, 769.679 344, 769.328 344 C 768.977 344, 769.505 343.100, 770.500 342 C 771.495 340.900, 771.945 340, 771.500 340 C 771.055 340, 771.479 339.128, 772.443 338.063 C 773.407 336.998, 773.900 335.648, 773.539 335.063 C 773.178 334.478, 773.434 334, 774.108 334 C 774.782 334, 775.051 333.718, 774.706 333.372 C 774.107 332.774, 777.938 325.100, 780.355 322.058 C 781.255 320.925, 781.211 320.790, 780.150 321.429 C 779.064 322.083, 779.016 321.839, 779.906 320.176 C 780.513 319.041, 781.466 317.830, 782.022 317.487 C 782.578 317.143, 782.805 316.494, 782.527 316.044 C 782.249 315.595, 782.692 314.671, 783.511 313.991 C 784.330 313.311, 785 312.129, 785 311.364 C 785 309.698, 786.837 306.355, 789.275 303.586 C 790.251 302.477, 790.823 300.982, 790.547 300.262 C 790.271 299.543, 790.967 298.033, 792.094 296.906 C 793.220 295.780, 794.304 294.019, 794.501 292.994 C 795.045 290.168, 796.944 287, 798.094 287 C 798.657 287, 798.822 286.522, 798.461 285.937 C 798.100 285.352, 798.612 283.981, 799.600 282.889 C 800.588 281.797, 801.504 280.172, 801.636 279.277 C 801.767 278.382, 802.543 277.276, 803.359 276.819 C 804.176 276.362, 805.140 274.637, 805.503 272.985 C 805.866 271.334, 806.563 270.230, 807.052 270.532 C 807.541 270.834, 808.243 269.826, 808.612 268.291 C 808.980 266.756, 810.146 264.669, 811.202 263.654 C 812.258 262.639, 813.537 260.839, 814.044 259.654 C 815.162 257.040, 818.388 251.819, 822.750 245.562 C 824.538 242.998, 826 240.534, 826 240.086 C 826 239.639, 827.237 238.009, 828.750 236.464 C 830.263 234.919, 830.861 234.031, 830.079 234.492 C 829.222 234.997, 829.420 234.313, 830.579 232.768 C 831.636 231.359, 832.849 230.418, 833.275 230.677 C 833.701 230.937, 833.927 230.778, 833.777 230.324 C 833.324 228.955, 839.395 221.044, 840.917 221.021 C 841.696 221.010, 842.049 220.716, 841.702 220.368 C 841.354 220.021, 842.452 218.446, 844.141 216.868 C 845.830 215.291, 846.884 214, 846.483 214 C 846.083 214, 846.311 213.330, 846.991 212.511 C 847.671 211.692, 848.595 211.249, 849.044 211.527 C 849.494 211.805, 850.102 211.644, 850.396 211.168 C 851.045 210.119, 843.162 201.001, 841.605 200.999 C 840.997 200.998, 839.178 199.860, 837.562 198.471 C 835.945 197.081, 833.583 195.682, 832.312 195.363 C 831.040 195.044, 830 194.430, 830 193.999 C 830 193.567, 829.302 192.946, 828.448 192.618 C 827.427 192.226, 827.110 192.446, 827.522 193.261 C 827.867 193.943, 827.503 193.713, 826.714 192.750 C 825.925 191.787, 824.642 191, 823.862 191 C 823.083 191, 821.445 190.299, 820.223 189.443 C 819 188.587, 818 188.147, 818 188.466 C 818 188.785, 816.875 188.309, 815.500 187.408 C 814.125 186.507, 813 186.102, 813 186.507 C 813 186.913, 812.396 186.744, 811.658 186.131 C 810.920 185.519, 810.020 185.313, 809.658 185.675 C 809.296 186.037, 809 185.822, 809 185.198 C 809 184.574, 808.325 184.322, 807.500 184.638 C 806.674 184.955, 806 184.668, 806 184 C 806 183.332, 805.326 183.045, 804.500 183.362 C 803.675 183.678, 803 183.614, 802.999 183.219 C 802.999 182.823, 801.815 182.431, 800.369 182.348 C 798.922 182.264, 797.354 181.589, 796.885 180.848 C 796.415 180.106, 796.024 179.893, 796.015 180.372 C 796.007 180.852, 795.438 180.792, 794.750 180.238 C 793.196 178.986, 787.097 177.547, 784.750 177.878 C 783.788 178.014, 783 177.687, 783 177.151 C 783 176.615, 782.212 176.304, 781.250 176.459 C 780.288 176.614, 779.050 176.475, 778.500 176.149 C 777.950 175.824, 776.825 175.450, 776 175.317 C 772.436 174.745, 769.500 174.135, 769.500 173.967 C 769.500 173.867, 768.150 173.667, 766.500 173.523 C 764.850 173.378, 763.500 173.160, 763.500 173.038 C 763.500 172.917, 762.038 172.608, 760.250 172.353 C 758.343 172.081, 757 172.325, 757 172.944" stroke="none" fill="#ec3c3c" fill-rule="evenodd"/></svg>